<?xml version="1.0" encoding="utf-8" standalone="no"?>
<!DOCTYPE svg PUBLIC "-//W3C//DTD SVG 1.1//EN"
  "http://www.w3.org/Graphics/SVG/1.1/DTD/svg11.dtd">
<svg xmlns:xlink="http://www.w3.org/1999/xlink" width="720pt" height="432pt" viewBox="0 0 720 432" xmlns="http://www.w3.org/2000/svg" version="1.1">
 <metadata>
  <rdf:RDF xmlns:dc="http://purl.org/dc/elements/1.1/" xmlns:cc="http://creativecommons.org/ns#" xmlns:rdf="http://www.w3.org/1999/02/22-rdf-syntax-ns#">
   <cc:Work>
    <dc:type rdf:resource="http://purl.org/dc/dcmitype/StillImage"/>
    <dc:date>2024-01-20T23:42:53.476765</dc:date>
    <dc:format>image/svg+xml</dc:format>
    <dc:creator>
     <cc:Agent>
      <dc:title>Matplotlib v3.8.2, https://matplotlib.org/</dc:title>
     </cc:Agent>
    </dc:creator>
   </cc:Work>
  </rdf:RDF>
 </metadata>
 <defs>
  <style type="text/css">*{stroke-linejoin: round; stroke-linecap: butt}</style>
 </defs>
 <g id="figure_1">
  <g id="patch_1">
   <path d="M 0 432 
L 720 432 
L 720 0 
L 0 0 
z
" style="fill: #ffffff"/>
  </g>
  <g id="axes_1">
   <g id="patch_2">
    <path d="M 90 384.48 
L 648 384.48 
L 648 51.84 
L 90 51.84 
z
" style="fill: #ffffff"/>
   </g>
   <g id="PathCollection_1">
    <defs>
     <path id="mc59cc52316" d="M 0 3 
C 0.795609 3 1.55874 2.683901 2.12132 2.12132 
C 2.683901 1.55874 3 0.795609 3 0 
C 3 -0.795609 2.683901 -1.55874 2.12132 -2.12132 
C 1.55874 -2.683901 0.795609 -3 0 -3 
C -0.795609 -3 -1.55874 -2.683901 -2.12132 -2.12132 
C -2.683901 -1.55874 -3 -0.795609 -3 0 
C -3 0.795609 -2.683901 1.55874 -2.12132 2.12132 
C -1.55874 2.683901 -0.795609 3 0 3 
z
" style="stroke: #0000ff"/>
    </defs>
    <g clip-path="url(#pb69657e8ff)">
     <use xlink:href="#mc59cc52316" x="115.363636" y="142.349845" style="fill: #0000ff; stroke: #0000ff"/>
     <use xlink:href="#mc59cc52316" x="120.487603" y="151.34178" style="fill: #0000ff; stroke: #0000ff"/>
     <use xlink:href="#mc59cc52316" x="125.61157" y="175.902986" style="fill: #0000ff; stroke: #0000ff"/>
     <use xlink:href="#mc59cc52316" x="130.735537" y="201.230469" style="fill: #0000ff; stroke: #0000ff"/>
     <use xlink:href="#mc59cc52316" x="135.859504" y="208.723172" style="fill: #0000ff; stroke: #0000ff"/>
     <use xlink:href="#mc59cc52316" x="140.983471" y="256.346992" style="fill: #0000ff; stroke: #0000ff"/>
     <use xlink:href="#mc59cc52316" x="146.107438" y="248.604946" style="fill: #0000ff; stroke: #0000ff"/>
     <use xlink:href="#mc59cc52316" x="151.231405" y="237.251631" style="fill: #0000ff; stroke: #0000ff"/>
     <use xlink:href="#mc59cc52316" x="156.355372" y="218.769065" style="fill: #0000ff; stroke: #0000ff"/>
     <use xlink:href="#mc59cc52316" x="161.479339" y="193.826836" style="fill: #0000ff; stroke: #0000ff"/>
     <use xlink:href="#mc59cc52316" x="166.603306" y="181.743018" style="fill: #0000ff; stroke: #0000ff"/>
     <use xlink:href="#mc59cc52316" x="171.727273" y="148.415881" style="fill: #0000ff; stroke: #0000ff"/>
     <use xlink:href="#mc59cc52316" x="176.85124" y="138.386865" style="fill: #0000ff; stroke: #0000ff"/>
     <use xlink:href="#mc59cc52316" x="181.975207" y="154.293993" style="fill: #0000ff; stroke: #0000ff"/>
     <use xlink:href="#mc59cc52316" x="187.099174" y="160.979287" style="fill: #0000ff; stroke: #0000ff"/>
     <use xlink:href="#mc59cc52316" x="192.22314" y="176.084721" style="fill: #0000ff; stroke: #0000ff"/>
     <use xlink:href="#mc59cc52316" x="197.347107" y="207.079074" style="fill: #0000ff; stroke: #0000ff"/>
     <use xlink:href="#mc59cc52316" x="202.471074" y="233.070616" style="fill: #0000ff; stroke: #0000ff"/>
     <use xlink:href="#mc59cc52316" x="207.595041" y="257.340026" style="fill: #0000ff; stroke: #0000ff"/>
     <use xlink:href="#mc59cc52316" x="212.719008" y="261.666868" style="fill: #0000ff; stroke: #0000ff"/>
     <use xlink:href="#mc59cc52316" x="217.842975" y="246.484665" style="fill: #0000ff; stroke: #0000ff"/>
     <use xlink:href="#mc59cc52316" x="222.966942" y="237.668764" style="fill: #0000ff; stroke: #0000ff"/>
     <use xlink:href="#mc59cc52316" x="228.090909" y="206.301811" style="fill: #0000ff; stroke: #0000ff"/>
     <use xlink:href="#mc59cc52316" x="233.214876" y="192.348337" style="fill: #0000ff; stroke: #0000ff"/>
     <use xlink:href="#mc59cc52316" x="238.338843" y="192.501253" style="fill: #0000ff; stroke: #0000ff"/>
     <use xlink:href="#mc59cc52316" x="243.46281" y="183.024861" style="fill: #0000ff; stroke: #0000ff"/>
     <use xlink:href="#mc59cc52316" x="248.586777" y="177.25209" style="fill: #0000ff; stroke: #0000ff"/>
     <use xlink:href="#mc59cc52316" x="253.710744" y="217.61445" style="fill: #0000ff; stroke: #0000ff"/>
     <use xlink:href="#mc59cc52316" x="258.834711" y="232.380256" style="fill: #0000ff; stroke: #0000ff"/>
     <use xlink:href="#mc59cc52316" x="263.958678" y="272.609446" style="fill: #0000ff; stroke: #0000ff"/>
     <use xlink:href="#mc59cc52316" x="269.082645" y="297.340092" style="fill: #0000ff; stroke: #0000ff"/>
     <use xlink:href="#mc59cc52316" x="274.206612" y="324.720173" style="fill: #0000ff; stroke: #0000ff"/>
     <use xlink:href="#mc59cc52316" x="279.330579" y="329.476836" style="fill: #0000ff; stroke: #0000ff"/>
     <use xlink:href="#mc59cc52316" x="284.454545" y="322.866479" style="fill: #0000ff; stroke: #0000ff"/>
     <use xlink:href="#mc59cc52316" x="289.578512" y="293.374319" style="fill: #0000ff; stroke: #0000ff"/>
     <use xlink:href="#mc59cc52316" x="294.702479" y="278.91297" style="fill: #0000ff; stroke: #0000ff"/>
     <use xlink:href="#mc59cc52316" x="299.826446" y="262.640746" style="fill: #0000ff; stroke: #0000ff"/>
     <use xlink:href="#mc59cc52316" x="304.950413" y="248.979034" style="fill: #0000ff; stroke: #0000ff"/>
     <use xlink:href="#mc59cc52316" x="310.07438" y="252.094361" style="fill: #0000ff; stroke: #0000ff"/>
     <use xlink:href="#mc59cc52316" x="315.198347" y="274.19297" style="fill: #0000ff; stroke: #0000ff"/>
     <use xlink:href="#mc59cc52316" x="320.322314" y="296.316291" style="fill: #0000ff; stroke: #0000ff"/>
     <use xlink:href="#mc59cc52316" x="325.446281" y="320.521777" style="fill: #0000ff; stroke: #0000ff"/>
     <use xlink:href="#mc59cc52316" x="330.570248" y="344.093864" style="fill: #0000ff; stroke: #0000ff"/>
     <use xlink:href="#mc59cc52316" x="335.694215" y="355.537524" style="fill: #0000ff; stroke: #0000ff"/>
     <use xlink:href="#mc59cc52316" x="340.818182" y="361.591115" style="fill: #0000ff; stroke: #0000ff"/>
     <use xlink:href="#mc59cc52316" x="345.942149" y="362.13089" style="fill: #0000ff; stroke: #0000ff"/>
     <use xlink:href="#mc59cc52316" x="351.066116" y="337.329869" style="fill: #0000ff; stroke: #0000ff"/>
     <use xlink:href="#mc59cc52316" x="356.190083" y="313.026118" style="fill: #0000ff; stroke: #0000ff"/>
     <use xlink:href="#mc59cc52316" x="361.31405" y="283.958361" style="fill: #0000ff; stroke: #0000ff"/>
     <use xlink:href="#mc59cc52316" x="366.438017" y="276.865686" style="fill: #0000ff; stroke: #0000ff"/>
     <use xlink:href="#mc59cc52316" x="371.561983" y="249.904724" style="fill: #0000ff; stroke: #0000ff"/>
     <use xlink:href="#mc59cc52316" x="376.68595" y="263.293641" style="fill: #0000ff; stroke: #0000ff"/>
     <use xlink:href="#mc59cc52316" x="381.809917" y="260.282335" style="fill: #0000ff; stroke: #0000ff"/>
     <use xlink:href="#mc59cc52316" x="386.933884" y="290.324781" style="fill: #0000ff; stroke: #0000ff"/>
     <use xlink:href="#mc59cc52316" x="392.057851" y="312.23702" style="fill: #0000ff; stroke: #0000ff"/>
     <use xlink:href="#mc59cc52316" x="397.181818" y="326.485918" style="fill: #0000ff; stroke: #0000ff"/>
     <use xlink:href="#mc59cc52316" x="402.305785" y="329.252259" style="fill: #0000ff; stroke: #0000ff"/>
     <use xlink:href="#mc59cc52316" x="407.429752" y="320.289384" style="fill: #0000ff; stroke: #0000ff"/>
     <use xlink:href="#mc59cc52316" x="412.553719" y="296.099232" style="fill: #0000ff; stroke: #0000ff"/>
     <use xlink:href="#mc59cc52316" x="417.677686" y="267.779501" style="fill: #0000ff; stroke: #0000ff"/>
     <use xlink:href="#mc59cc52316" x="422.801653" y="242.114969" style="fill: #0000ff; stroke: #0000ff"/>
     <use xlink:href="#mc59cc52316" x="427.92562" y="194.465288" style="fill: #0000ff; stroke: #0000ff"/>
     <use xlink:href="#mc59cc52316" x="433.049587" y="174.641772" style="fill: #0000ff; stroke: #0000ff"/>
     <use xlink:href="#mc59cc52316" x="438.173554" y="157.534741" style="fill: #0000ff; stroke: #0000ff"/>
     <use xlink:href="#mc59cc52316" x="443.297521" y="191.080468" style="fill: #0000ff; stroke: #0000ff"/>
     <use xlink:href="#mc59cc52316" x="448.421488" y="178.211695" style="fill: #0000ff; stroke: #0000ff"/>
     <use xlink:href="#mc59cc52316" x="453.545455" y="201.964877" style="fill: #0000ff; stroke: #0000ff"/>
     <use xlink:href="#mc59cc52316" x="458.669421" y="209.955538" style="fill: #0000ff; stroke: #0000ff"/>
     <use xlink:href="#mc59cc52316" x="463.793388" y="206.931095" style="fill: #0000ff; stroke: #0000ff"/>
     <use xlink:href="#mc59cc52316" x="468.917355" y="222.531651" style="fill: #0000ff; stroke: #0000ff"/>
     <use xlink:href="#mc59cc52316" x="474.041322" y="202.979297" style="fill: #0000ff; stroke: #0000ff"/>
     <use xlink:href="#mc59cc52316" x="479.165289" y="174.754159" style="fill: #0000ff; stroke: #0000ff"/>
     <use xlink:href="#mc59cc52316" x="484.289256" y="158.37399" style="fill: #0000ff; stroke: #0000ff"/>
     <use xlink:href="#mc59cc52316" x="489.413223" y="125.929142" style="fill: #0000ff; stroke: #0000ff"/>
     <use xlink:href="#mc59cc52316" x="494.53719" y="86.751885" style="fill: #0000ff; stroke: #0000ff"/>
     <use xlink:href="#mc59cc52316" x="499.661157" y="82.150645" style="fill: #0000ff; stroke: #0000ff"/>
     <use xlink:href="#mc59cc52316" x="504.785124" y="79.705619" style="fill: #0000ff; stroke: #0000ff"/>
     <use xlink:href="#mc59cc52316" x="509.909091" y="86.541632" style="fill: #0000ff; stroke: #0000ff"/>
     <use xlink:href="#mc59cc52316" x="515.033058" y="104.301578" style="fill: #0000ff; stroke: #0000ff"/>
     <use xlink:href="#mc59cc52316" x="520.157025" y="135.41073" style="fill: #0000ff; stroke: #0000ff"/>
     <use xlink:href="#mc59cc52316" x="525.280992" y="141.439533" style="fill: #0000ff; stroke: #0000ff"/>
     <use xlink:href="#mc59cc52316" x="530.404959" y="173.637868" style="fill: #0000ff; stroke: #0000ff"/>
     <use xlink:href="#mc59cc52316" x="535.528926" y="161.079953" style="fill: #0000ff; stroke: #0000ff"/>
     <use xlink:href="#mc59cc52316" x="540.652893" y="144.570012" style="fill: #0000ff; stroke: #0000ff"/>
     <use xlink:href="#mc59cc52316" x="545.77686" y="140.702408" style="fill: #0000ff; stroke: #0000ff"/>
     <use xlink:href="#mc59cc52316" x="550.900826" y="93.162976" style="fill: #0000ff; stroke: #0000ff"/>
     <use xlink:href="#mc59cc52316" x="556.024793" y="76.188561" style="fill: #0000ff; stroke: #0000ff"/>
     <use xlink:href="#mc59cc52316" x="561.14876" y="73.350284" style="fill: #0000ff; stroke: #0000ff"/>
     <use xlink:href="#mc59cc52316" x="566.272727" y="67.181891" style="fill: #0000ff; stroke: #0000ff"/>
     <use xlink:href="#mc59cc52316" x="571.396694" y="73.493284" style="fill: #0000ff; stroke: #0000ff"/>
     <use xlink:href="#mc59cc52316" x="576.520661" y="100.068757" style="fill: #0000ff; stroke: #0000ff"/>
     <use xlink:href="#mc59cc52316" x="581.644628" y="121.642624" style="fill: #0000ff; stroke: #0000ff"/>
     <use xlink:href="#mc59cc52316" x="586.768595" y="165.966072" style="fill: #0000ff; stroke: #0000ff"/>
     <use xlink:href="#mc59cc52316" x="591.892562" y="190.239506" style="fill: #0000ff; stroke: #0000ff"/>
     <use xlink:href="#mc59cc52316" x="597.016529" y="196.239392" style="fill: #0000ff; stroke: #0000ff"/>
     <use xlink:href="#mc59cc52316" x="602.140496" y="178.138352" style="fill: #0000ff; stroke: #0000ff"/>
     <use xlink:href="#mc59cc52316" x="607.264463" y="157.688409" style="fill: #0000ff; stroke: #0000ff"/>
     <use xlink:href="#mc59cc52316" x="612.38843" y="165.48762" style="fill: #0000ff; stroke: #0000ff"/>
     <use xlink:href="#mc59cc52316" x="617.512397" y="149.902033" style="fill: #0000ff; stroke: #0000ff"/>
     <use xlink:href="#mc59cc52316" x="622.636364" y="109.484325" style="fill: #0000ff; stroke: #0000ff"/>
    </g>
   </g>
   <g id="matplotlib.axis_1">
    <g id="xtick_1">
     <g id="line2d_1">
      <path d="M 115.363636 384.48 
L 115.363636 51.84 
" clip-path="url(#pb69657e8ff)" style="fill: none; stroke: #b0b0b0; stroke-width: 0.8; stroke-linecap: square"/>
     </g>
     <g id="line2d_2">
      <defs>
       <path id="m07f34c0443" d="M 0 0 
L 0 3.5 
" style="stroke: #000000; stroke-width: 0.8"/>
      </defs>
      <g>
       <use xlink:href="#m07f34c0443" x="115.363636" y="384.48" style="stroke: #000000; stroke-width: 0.8"/>
      </g>
     </g>
     <g id="text_1">
      <!-- 0 -->
      <g transform="translate(112.182386 399.078438) scale(0.1 -0.1)">
       <defs>
        <path id="DejaVuSans-30" d="M 2034 4250 
Q 1547 4250 1301 3770 
Q 1056 3291 1056 2328 
Q 1056 1369 1301 889 
Q 1547 409 2034 409 
Q 2525 409 2770 889 
Q 3016 1369 3016 2328 
Q 3016 3291 2770 3770 
Q 2525 4250 2034 4250 
z
M 2034 4750 
Q 2819 4750 3233 4129 
Q 3647 3509 3647 2328 
Q 3647 1150 3233 529 
Q 2819 -91 2034 -91 
Q 1250 -91 836 529 
Q 422 1150 422 2328 
Q 422 3509 836 4129 
Q 1250 4750 2034 4750 
z
" transform="scale(0.015625)"/>
       </defs>
       <use xlink:href="#DejaVuSans-30"/>
      </g>
     </g>
    </g>
    <g id="xtick_2">
     <g id="line2d_3">
      <path d="M 217.842975 384.48 
L 217.842975 51.84 
" clip-path="url(#pb69657e8ff)" style="fill: none; stroke: #b0b0b0; stroke-width: 0.8; stroke-linecap: square"/>
     </g>
     <g id="line2d_4">
      <g>
       <use xlink:href="#m07f34c0443" x="217.842975" y="384.48" style="stroke: #000000; stroke-width: 0.8"/>
      </g>
     </g>
     <g id="text_2">
      <!-- 2 -->
      <g transform="translate(214.661725 399.078438) scale(0.1 -0.1)">
       <defs>
        <path id="DejaVuSans-32" d="M 1228 531 
L 3431 531 
L 3431 0 
L 469 0 
L 469 531 
Q 828 903 1448 1529 
Q 2069 2156 2228 2338 
Q 2531 2678 2651 2914 
Q 2772 3150 2772 3378 
Q 2772 3750 2511 3984 
Q 2250 4219 1831 4219 
Q 1534 4219 1204 4116 
Q 875 4013 500 3803 
L 500 4441 
Q 881 4594 1212 4672 
Q 1544 4750 1819 4750 
Q 2544 4750 2975 4387 
Q 3406 4025 3406 3419 
Q 3406 3131 3298 2873 
Q 3191 2616 2906 2266 
Q 2828 2175 2409 1742 
Q 1991 1309 1228 531 
z
" transform="scale(0.015625)"/>
       </defs>
       <use xlink:href="#DejaVuSans-32"/>
      </g>
     </g>
    </g>
    <g id="xtick_3">
     <g id="line2d_5">
      <path d="M 320.322314 384.48 
L 320.322314 51.84 
" clip-path="url(#pb69657e8ff)" style="fill: none; stroke: #b0b0b0; stroke-width: 0.8; stroke-linecap: square"/>
     </g>
     <g id="line2d_6">
      <g>
       <use xlink:href="#m07f34c0443" x="320.322314" y="384.48" style="stroke: #000000; stroke-width: 0.8"/>
      </g>
     </g>
     <g id="text_3">
      <!-- 4 -->
      <g transform="translate(317.141064 399.078438) scale(0.1 -0.1)">
       <defs>
        <path id="DejaVuSans-34" d="M 2419 4116 
L 825 1625 
L 2419 1625 
L 2419 4116 
z
M 2253 4666 
L 3047 4666 
L 3047 1625 
L 3713 1625 
L 3713 1100 
L 3047 1100 
L 3047 0 
L 2419 0 
L 2419 1100 
L 313 1100 
L 313 1709 
L 2253 4666 
z
" transform="scale(0.015625)"/>
       </defs>
       <use xlink:href="#DejaVuSans-34"/>
      </g>
     </g>
    </g>
    <g id="xtick_4">
     <g id="line2d_7">
      <path d="M 422.801653 384.48 
L 422.801653 51.84 
" clip-path="url(#pb69657e8ff)" style="fill: none; stroke: #b0b0b0; stroke-width: 0.8; stroke-linecap: square"/>
     </g>
     <g id="line2d_8">
      <g>
       <use xlink:href="#m07f34c0443" x="422.801653" y="384.48" style="stroke: #000000; stroke-width: 0.8"/>
      </g>
     </g>
     <g id="text_4">
      <!-- 6 -->
      <g transform="translate(419.620403 399.078438) scale(0.1 -0.1)">
       <defs>
        <path id="DejaVuSans-36" d="M 2113 2584 
Q 1688 2584 1439 2293 
Q 1191 2003 1191 1497 
Q 1191 994 1439 701 
Q 1688 409 2113 409 
Q 2538 409 2786 701 
Q 3034 994 3034 1497 
Q 3034 2003 2786 2293 
Q 2538 2584 2113 2584 
z
M 3366 4563 
L 3366 3988 
Q 3128 4100 2886 4159 
Q 2644 4219 2406 4219 
Q 1781 4219 1451 3797 
Q 1122 3375 1075 2522 
Q 1259 2794 1537 2939 
Q 1816 3084 2150 3084 
Q 2853 3084 3261 2657 
Q 3669 2231 3669 1497 
Q 3669 778 3244 343 
Q 2819 -91 2113 -91 
Q 1303 -91 875 529 
Q 447 1150 447 2328 
Q 447 3434 972 4092 
Q 1497 4750 2381 4750 
Q 2619 4750 2861 4703 
Q 3103 4656 3366 4563 
z
" transform="scale(0.015625)"/>
       </defs>
       <use xlink:href="#DejaVuSans-36"/>
      </g>
     </g>
    </g>
    <g id="xtick_5">
     <g id="line2d_9">
      <path d="M 525.280992 384.48 
L 525.280992 51.84 
" clip-path="url(#pb69657e8ff)" style="fill: none; stroke: #b0b0b0; stroke-width: 0.8; stroke-linecap: square"/>
     </g>
     <g id="line2d_10">
      <g>
       <use xlink:href="#m07f34c0443" x="525.280992" y="384.48" style="stroke: #000000; stroke-width: 0.8"/>
      </g>
     </g>
     <g id="text_5">
      <!-- 8 -->
      <g transform="translate(522.099742 399.078438) scale(0.1 -0.1)">
       <defs>
        <path id="DejaVuSans-38" d="M 2034 2216 
Q 1584 2216 1326 1975 
Q 1069 1734 1069 1313 
Q 1069 891 1326 650 
Q 1584 409 2034 409 
Q 2484 409 2743 651 
Q 3003 894 3003 1313 
Q 3003 1734 2745 1975 
Q 2488 2216 2034 2216 
z
M 1403 2484 
Q 997 2584 770 2862 
Q 544 3141 544 3541 
Q 544 4100 942 4425 
Q 1341 4750 2034 4750 
Q 2731 4750 3128 4425 
Q 3525 4100 3525 3541 
Q 3525 3141 3298 2862 
Q 3072 2584 2669 2484 
Q 3125 2378 3379 2068 
Q 3634 1759 3634 1313 
Q 3634 634 3220 271 
Q 2806 -91 2034 -91 
Q 1263 -91 848 271 
Q 434 634 434 1313 
Q 434 1759 690 2068 
Q 947 2378 1403 2484 
z
M 1172 3481 
Q 1172 3119 1398 2916 
Q 1625 2713 2034 2713 
Q 2441 2713 2670 2916 
Q 2900 3119 2900 3481 
Q 2900 3844 2670 4047 
Q 2441 4250 2034 4250 
Q 1625 4250 1398 4047 
Q 1172 3844 1172 3481 
z
" transform="scale(0.015625)"/>
       </defs>
       <use xlink:href="#DejaVuSans-38"/>
      </g>
     </g>
    </g>
    <g id="xtick_6">
     <g id="line2d_11">
      <path d="M 627.760331 384.48 
L 627.760331 51.84 
" clip-path="url(#pb69657e8ff)" style="fill: none; stroke: #b0b0b0; stroke-width: 0.8; stroke-linecap: square"/>
     </g>
     <g id="line2d_12">
      <g>
       <use xlink:href="#m07f34c0443" x="627.760331" y="384.48" style="stroke: #000000; stroke-width: 0.8"/>
      </g>
     </g>
     <g id="text_6">
      <!-- 10 -->
      <g transform="translate(621.397831 399.078438) scale(0.1 -0.1)">
       <defs>
        <path id="DejaVuSans-31" d="M 794 531 
L 1825 531 
L 1825 4091 
L 703 3866 
L 703 4441 
L 1819 4666 
L 2450 4666 
L 2450 531 
L 3481 531 
L 3481 0 
L 794 0 
L 794 531 
z
" transform="scale(0.015625)"/>
       </defs>
       <use xlink:href="#DejaVuSans-31"/>
       <use xlink:href="#DejaVuSans-30" x="63.623047"/>
      </g>
     </g>
    </g>
    <g id="text_7">
     <!-- x -->
     <g transform="translate(366.040625 412.756563) scale(0.1 -0.1)">
      <defs>
       <path id="DejaVuSans-78" d="M 3513 3500 
L 2247 1797 
L 3578 0 
L 2900 0 
L 1881 1375 
L 863 0 
L 184 0 
L 1544 1831 
L 300 3500 
L 978 3500 
L 1906 2253 
L 2834 3500 
L 3513 3500 
z
" transform="scale(0.015625)"/>
      </defs>
      <use xlink:href="#DejaVuSans-78"/>
     </g>
    </g>
   </g>
   <g id="matplotlib.axis_2">
    <g id="ytick_1">
     <g id="line2d_13">
      <path d="M 90 371.130166 
L 648 371.130166 
" clip-path="url(#pb69657e8ff)" style="fill: none; stroke: #b0b0b0; stroke-width: 0.8; stroke-linecap: square"/>
     </g>
     <g id="line2d_14">
      <defs>
       <path id="m64423cd719" d="M 0 0 
L -3.5 0 
" style="stroke: #000000; stroke-width: 0.8"/>
      </defs>
      <g>
       <use xlink:href="#m64423cd719" x="90" y="371.130166" style="stroke: #000000; stroke-width: 0.8"/>
      </g>
     </g>
     <g id="text_8">
      <!-- −5.0 -->
      <g transform="translate(58.717187 374.929385) scale(0.1 -0.1)">
       <defs>
        <path id="DejaVuSans-2212" d="M 678 2272 
L 4684 2272 
L 4684 1741 
L 678 1741 
L 678 2272 
z
" transform="scale(0.015625)"/>
        <path id="DejaVuSans-35" d="M 691 4666 
L 3169 4666 
L 3169 4134 
L 1269 4134 
L 1269 2991 
Q 1406 3038 1543 3061 
Q 1681 3084 1819 3084 
Q 2600 3084 3056 2656 
Q 3513 2228 3513 1497 
Q 3513 744 3044 326 
Q 2575 -91 1722 -91 
Q 1428 -91 1123 -41 
Q 819 9 494 109 
L 494 744 
Q 775 591 1075 516 
Q 1375 441 1709 441 
Q 2250 441 2565 725 
Q 2881 1009 2881 1497 
Q 2881 1984 2565 2268 
Q 2250 2553 1709 2553 
Q 1456 2553 1204 2497 
Q 953 2441 691 2322 
L 691 4666 
z
" transform="scale(0.015625)"/>
        <path id="DejaVuSans-2e" d="M 684 794 
L 1344 794 
L 1344 0 
L 684 0 
L 684 794 
z
" transform="scale(0.015625)"/>
       </defs>
       <use xlink:href="#DejaVuSans-2212"/>
       <use xlink:href="#DejaVuSans-35" x="83.789062"/>
       <use xlink:href="#DejaVuSans-2e" x="147.412109"/>
       <use xlink:href="#DejaVuSans-30" x="179.199219"/>
      </g>
     </g>
    </g>
    <g id="ytick_2">
     <g id="line2d_15">
      <path d="M 90 329.482578 
L 648 329.482578 
" clip-path="url(#pb69657e8ff)" style="fill: none; stroke: #b0b0b0; stroke-width: 0.8; stroke-linecap: square"/>
     </g>
     <g id="line2d_16">
      <g>
       <use xlink:href="#m64423cd719" x="90" y="329.482578" style="stroke: #000000; stroke-width: 0.8"/>
      </g>
     </g>
     <g id="text_9">
      <!-- −2.5 -->
      <g transform="translate(58.717187 333.281797) scale(0.1 -0.1)">
       <use xlink:href="#DejaVuSans-2212"/>
       <use xlink:href="#DejaVuSans-32" x="83.789062"/>
       <use xlink:href="#DejaVuSans-2e" x="147.412109"/>
       <use xlink:href="#DejaVuSans-35" x="179.199219"/>
      </g>
     </g>
    </g>
    <g id="ytick_3">
     <g id="line2d_17">
      <path d="M 90 287.83499 
L 648 287.83499 
" clip-path="url(#pb69657e8ff)" style="fill: none; stroke: #b0b0b0; stroke-width: 0.8; stroke-linecap: square"/>
     </g>
     <g id="line2d_18">
      <g>
       <use xlink:href="#m64423cd719" x="90" y="287.83499" style="stroke: #000000; stroke-width: 0.8"/>
      </g>
     </g>
     <g id="text_10">
      <!-- 0.0 -->
      <g transform="translate(67.096875 291.634208) scale(0.1 -0.1)">
       <use xlink:href="#DejaVuSans-30"/>
       <use xlink:href="#DejaVuSans-2e" x="63.623047"/>
       <use xlink:href="#DejaVuSans-30" x="95.410156"/>
      </g>
     </g>
    </g>
    <g id="ytick_4">
     <g id="line2d_19">
      <path d="M 90 246.187402 
L 648 246.187402 
" clip-path="url(#pb69657e8ff)" style="fill: none; stroke: #b0b0b0; stroke-width: 0.8; stroke-linecap: square"/>
     </g>
     <g id="line2d_20">
      <g>
       <use xlink:href="#m64423cd719" x="90" y="246.187402" style="stroke: #000000; stroke-width: 0.8"/>
      </g>
     </g>
     <g id="text_11">
      <!-- 2.5 -->
      <g transform="translate(67.096875 249.98662) scale(0.1 -0.1)">
       <use xlink:href="#DejaVuSans-32"/>
       <use xlink:href="#DejaVuSans-2e" x="63.623047"/>
       <use xlink:href="#DejaVuSans-35" x="95.410156"/>
      </g>
     </g>
    </g>
    <g id="ytick_5">
     <g id="line2d_21">
      <path d="M 90 204.539813 
L 648 204.539813 
" clip-path="url(#pb69657e8ff)" style="fill: none; stroke: #b0b0b0; stroke-width: 0.8; stroke-linecap: square"/>
     </g>
     <g id="line2d_22">
      <g>
       <use xlink:href="#m64423cd719" x="90" y="204.539813" style="stroke: #000000; stroke-width: 0.8"/>
      </g>
     </g>
     <g id="text_12">
      <!-- 5.0 -->
      <g transform="translate(67.096875 208.339032) scale(0.1 -0.1)">
       <use xlink:href="#DejaVuSans-35"/>
       <use xlink:href="#DejaVuSans-2e" x="63.623047"/>
       <use xlink:href="#DejaVuSans-30" x="95.410156"/>
      </g>
     </g>
    </g>
    <g id="ytick_6">
     <g id="line2d_23">
      <path d="M 90 162.892225 
L 648 162.892225 
" clip-path="url(#pb69657e8ff)" style="fill: none; stroke: #b0b0b0; stroke-width: 0.8; stroke-linecap: square"/>
     </g>
     <g id="line2d_24">
      <g>
       <use xlink:href="#m64423cd719" x="90" y="162.892225" style="stroke: #000000; stroke-width: 0.8"/>
      </g>
     </g>
     <g id="text_13">
      <!-- 7.5 -->
      <g transform="translate(67.096875 166.691444) scale(0.1 -0.1)">
       <defs>
        <path id="DejaVuSans-37" d="M 525 4666 
L 3525 4666 
L 3525 4397 
L 1831 0 
L 1172 0 
L 2766 4134 
L 525 4134 
L 525 4666 
z
" transform="scale(0.015625)"/>
       </defs>
       <use xlink:href="#DejaVuSans-37"/>
       <use xlink:href="#DejaVuSans-2e" x="63.623047"/>
       <use xlink:href="#DejaVuSans-35" x="95.410156"/>
      </g>
     </g>
    </g>
    <g id="ytick_7">
     <g id="line2d_25">
      <path d="M 90 121.244637 
L 648 121.244637 
" clip-path="url(#pb69657e8ff)" style="fill: none; stroke: #b0b0b0; stroke-width: 0.8; stroke-linecap: square"/>
     </g>
     <g id="line2d_26">
      <g>
       <use xlink:href="#m64423cd719" x="90" y="121.244637" style="stroke: #000000; stroke-width: 0.8"/>
      </g>
     </g>
     <g id="text_14">
      <!-- 10.0 -->
      <g transform="translate(60.734375 125.043856) scale(0.1 -0.1)">
       <use xlink:href="#DejaVuSans-31"/>
       <use xlink:href="#DejaVuSans-30" x="63.623047"/>
       <use xlink:href="#DejaVuSans-2e" x="127.246094"/>
       <use xlink:href="#DejaVuSans-30" x="159.033203"/>
      </g>
     </g>
    </g>
    <g id="ytick_8">
     <g id="line2d_27">
      <path d="M 90 79.597049 
L 648 79.597049 
" clip-path="url(#pb69657e8ff)" style="fill: none; stroke: #b0b0b0; stroke-width: 0.8; stroke-linecap: square"/>
     </g>
     <g id="line2d_28">
      <g>
       <use xlink:href="#m64423cd719" x="90" y="79.597049" style="stroke: #000000; stroke-width: 0.8"/>
      </g>
     </g>
     <g id="text_15">
      <!-- 12.5 -->
      <g transform="translate(60.734375 83.396268) scale(0.1 -0.1)">
       <use xlink:href="#DejaVuSans-31"/>
       <use xlink:href="#DejaVuSans-32" x="63.623047"/>
       <use xlink:href="#DejaVuSans-2e" x="127.246094"/>
       <use xlink:href="#DejaVuSans-35" x="159.033203"/>
      </g>
     </g>
    </g>
    <g id="text_16">
     <!-- y -->
     <g transform="translate(52.6375 221.119375) rotate(-90) scale(0.1 -0.1)">
      <defs>
       <path id="DejaVuSans-79" d="M 2059 -325 
Q 1816 -950 1584 -1140 
Q 1353 -1331 966 -1331 
L 506 -1331 
L 506 -850 
L 844 -850 
Q 1081 -850 1212 -737 
Q 1344 -625 1503 -206 
L 1606 56 
L 191 3500 
L 800 3500 
L 1894 763 
L 2988 3500 
L 3597 3500 
L 2059 -325 
z
" transform="scale(0.015625)"/>
      </defs>
      <use xlink:href="#DejaVuSans-79"/>
     </g>
    </g>
   </g>
   <g id="line2d_29">
    <path d="M 115.363636 142.541831 
L 120.487603 151.063036 
L 125.61157 169.823548 
L 130.735537 194.721332 
L 135.859504 219.978788 
L 140.983471 239.591191 
L 146.107438 248.828497 
L 151.231405 245.42284 
L 156.355372 230.151006 
L 161.479339 206.66926 
L 166.603306 180.640976 
L 171.727273 158.370656 
L 176.85124 145.27877 
L 181.975207 144.590839 
L 187.099174 156.561715 
L 192.22314 178.425003 
L 197.347107 205.08002 
L 202.471074 230.34813 
L 207.595041 248.4909 
L 212.719008 255.618424 
L 217.842975 250.643064 
L 222.966942 235.545174 
L 228.090909 214.885833 
L 233.214876 194.685961 
L 238.338843 180.946379 
L 243.46281 178.171243 
L 248.586777 188.25651 
L 253.710744 210.015699 
L 258.834711 239.459202 
L 263.958678 270.758917 
L 269.082645 297.66217 
L 274.206612 315.008914 
L 279.330579 319.980913 
L 284.454545 312.777224 
L 289.578512 296.550767 
L 294.702479 276.621681 
L 299.826446 259.160233 
L 304.950413 249.661896 
L 310.07438 251.588134 
L 315.198347 265.505803 
L 320.322314 288.936028 
L 325.446281 316.94969 
L 330.570248 343.363855 
L 335.694215 362.246315 
L 340.818182 369.36 
L 345.942149 363.193687 
L 351.066116 345.326737 
L 356.190083 320.038616 
L 361.31405 293.258842 
L 366.438017 271.114482 
L 371.561983 258.43083 
L 376.68595 257.552351 
L 381.809917 267.772545 
L 386.933884 285.51228 
L 392.057851 305.202893 
L 397.181818 320.657764 
L 402.305785 326.596491 
L 407.429752 319.94839 
L 412.553719 300.616079 
L 417.677686 271.512075 
L 422.801653 237.859327 
L 427.92562 205.926787 
L 433.049587 181.509474 
L 438.173554 168.524998 
L 443.297521 168.070027 
L 448.421488 178.16754 
L 453.545455 194.266596 
L 458.669421 210.372106 
L 463.793388 220.527833 
L 468.917355 220.289394 
L 474.041322 207.826467 
L 479.165289 184.3842 
L 484.289256 153.990734 
L 489.413223 122.482314 
L 494.53719 96.084566 
L 499.661157 79.89719 
L 504.785124 76.652984 
L 509.909091 86.054951 
L 515.033058 104.853733 
L 520.157025 127.646365 
L 525.280992 148.200745 
L 530.404959 160.981549 
L 535.528926 162.503968 
L 540.652893 152.18386 
L 545.77686 132.476186 
L 550.900826 108.267895 
L 556.024793 85.673953 
L 561.14876 70.531365 
L 566.272727 66.96 
L 571.396694 76.342674 
L 576.520661 96.974317 
L 581.644628 124.466245 
L 586.768595 152.806684 
L 591.892562 175.818037 
L 597.016529 188.654245 
L 602.140496 188.9718 
L 607.264463 177.487835 
L 612.38843 157.78884 
L 617.512397 135.436965 
L 622.636364 116.592893 
" clip-path="url(#pb69657e8ff)" style="fill: none; stroke: #ffa500; stroke-width: 1.5; stroke-linecap: square"/>
   </g>
   <g id="patch_3">
    <path d="M 90 384.48 
L 90 51.84 
" style="fill: none; stroke: #000000; stroke-width: 0.8; stroke-linejoin: miter; stroke-linecap: square"/>
   </g>
   <g id="patch_4">
    <path d="M 648 384.48 
L 648 51.84 
" style="fill: none; stroke: #000000; stroke-width: 0.8; stroke-linejoin: miter; stroke-linecap: square"/>
   </g>
   <g id="patch_5">
    <path d="M 90 384.48 
L 648 384.48 
" style="fill: none; stroke: #000000; stroke-width: 0.8; stroke-linejoin: miter; stroke-linecap: square"/>
   </g>
   <g id="patch_6">
    <path d="M 90 51.84 
L 648 51.84 
" style="fill: none; stroke: #000000; stroke-width: 0.8; stroke-linejoin: miter; stroke-linecap: square"/>
   </g>
   <g id="text_17">
    <!-- Dopasowana funkcja F -->
    <g transform="translate(301.26375 45.84) scale(0.12 -0.12)">
     <defs>
      <path id="DejaVuSans-44" d="M 1259 4147 
L 1259 519 
L 2022 519 
Q 2988 519 3436 956 
Q 3884 1394 3884 2338 
Q 3884 3275 3436 3711 
Q 2988 4147 2022 4147 
L 1259 4147 
z
M 628 4666 
L 1925 4666 
Q 3281 4666 3915 4102 
Q 4550 3538 4550 2338 
Q 4550 1131 3912 565 
Q 3275 0 1925 0 
L 628 0 
L 628 4666 
z
" transform="scale(0.015625)"/>
      <path id="DejaVuSans-6f" d="M 1959 3097 
Q 1497 3097 1228 2736 
Q 959 2375 959 1747 
Q 959 1119 1226 758 
Q 1494 397 1959 397 
Q 2419 397 2687 759 
Q 2956 1122 2956 1747 
Q 2956 2369 2687 2733 
Q 2419 3097 1959 3097 
z
M 1959 3584 
Q 2709 3584 3137 3096 
Q 3566 2609 3566 1747 
Q 3566 888 3137 398 
Q 2709 -91 1959 -91 
Q 1206 -91 779 398 
Q 353 888 353 1747 
Q 353 2609 779 3096 
Q 1206 3584 1959 3584 
z
" transform="scale(0.015625)"/>
      <path id="DejaVuSans-70" d="M 1159 525 
L 1159 -1331 
L 581 -1331 
L 581 3500 
L 1159 3500 
L 1159 2969 
Q 1341 3281 1617 3432 
Q 1894 3584 2278 3584 
Q 2916 3584 3314 3078 
Q 3713 2572 3713 1747 
Q 3713 922 3314 415 
Q 2916 -91 2278 -91 
Q 1894 -91 1617 61 
Q 1341 213 1159 525 
z
M 3116 1747 
Q 3116 2381 2855 2742 
Q 2594 3103 2138 3103 
Q 1681 3103 1420 2742 
Q 1159 2381 1159 1747 
Q 1159 1113 1420 752 
Q 1681 391 2138 391 
Q 2594 391 2855 752 
Q 3116 1113 3116 1747 
z
" transform="scale(0.015625)"/>
      <path id="DejaVuSans-61" d="M 2194 1759 
Q 1497 1759 1228 1600 
Q 959 1441 959 1056 
Q 959 750 1161 570 
Q 1363 391 1709 391 
Q 2188 391 2477 730 
Q 2766 1069 2766 1631 
L 2766 1759 
L 2194 1759 
z
M 3341 1997 
L 3341 0 
L 2766 0 
L 2766 531 
Q 2569 213 2275 61 
Q 1981 -91 1556 -91 
Q 1019 -91 701 211 
Q 384 513 384 1019 
Q 384 1609 779 1909 
Q 1175 2209 1959 2209 
L 2766 2209 
L 2766 2266 
Q 2766 2663 2505 2880 
Q 2244 3097 1772 3097 
Q 1472 3097 1187 3025 
Q 903 2953 641 2809 
L 641 3341 
Q 956 3463 1253 3523 
Q 1550 3584 1831 3584 
Q 2591 3584 2966 3190 
Q 3341 2797 3341 1997 
z
" transform="scale(0.015625)"/>
      <path id="DejaVuSans-73" d="M 2834 3397 
L 2834 2853 
Q 2591 2978 2328 3040 
Q 2066 3103 1784 3103 
Q 1356 3103 1142 2972 
Q 928 2841 928 2578 
Q 928 2378 1081 2264 
Q 1234 2150 1697 2047 
L 1894 2003 
Q 2506 1872 2764 1633 
Q 3022 1394 3022 966 
Q 3022 478 2636 193 
Q 2250 -91 1575 -91 
Q 1294 -91 989 -36 
Q 684 19 347 128 
L 347 722 
Q 666 556 975 473 
Q 1284 391 1588 391 
Q 1994 391 2212 530 
Q 2431 669 2431 922 
Q 2431 1156 2273 1281 
Q 2116 1406 1581 1522 
L 1381 1569 
Q 847 1681 609 1914 
Q 372 2147 372 2553 
Q 372 3047 722 3315 
Q 1072 3584 1716 3584 
Q 2034 3584 2315 3537 
Q 2597 3491 2834 3397 
z
" transform="scale(0.015625)"/>
      <path id="DejaVuSans-77" d="M 269 3500 
L 844 3500 
L 1563 769 
L 2278 3500 
L 2956 3500 
L 3675 769 
L 4391 3500 
L 4966 3500 
L 4050 0 
L 3372 0 
L 2619 2869 
L 1863 0 
L 1184 0 
L 269 3500 
z
" transform="scale(0.015625)"/>
      <path id="DejaVuSans-6e" d="M 3513 2113 
L 3513 0 
L 2938 0 
L 2938 2094 
Q 2938 2591 2744 2837 
Q 2550 3084 2163 3084 
Q 1697 3084 1428 2787 
Q 1159 2491 1159 1978 
L 1159 0 
L 581 0 
L 581 3500 
L 1159 3500 
L 1159 2956 
Q 1366 3272 1645 3428 
Q 1925 3584 2291 3584 
Q 2894 3584 3203 3211 
Q 3513 2838 3513 2113 
z
" transform="scale(0.015625)"/>
      <path id="DejaVuSans-20" transform="scale(0.015625)"/>
      <path id="DejaVuSans-66" d="M 2375 4863 
L 2375 4384 
L 1825 4384 
Q 1516 4384 1395 4259 
Q 1275 4134 1275 3809 
L 1275 3500 
L 2222 3500 
L 2222 3053 
L 1275 3053 
L 1275 0 
L 697 0 
L 697 3053 
L 147 3053 
L 147 3500 
L 697 3500 
L 697 3744 
Q 697 4328 969 4595 
Q 1241 4863 1831 4863 
L 2375 4863 
z
" transform="scale(0.015625)"/>
      <path id="DejaVuSans-75" d="M 544 1381 
L 544 3500 
L 1119 3500 
L 1119 1403 
Q 1119 906 1312 657 
Q 1506 409 1894 409 
Q 2359 409 2629 706 
Q 2900 1003 2900 1516 
L 2900 3500 
L 3475 3500 
L 3475 0 
L 2900 0 
L 2900 538 
Q 2691 219 2414 64 
Q 2138 -91 1772 -91 
Q 1169 -91 856 284 
Q 544 659 544 1381 
z
M 1991 3584 
L 1991 3584 
z
" transform="scale(0.015625)"/>
      <path id="DejaVuSans-6b" d="M 581 4863 
L 1159 4863 
L 1159 1991 
L 2875 3500 
L 3609 3500 
L 1753 1863 
L 3688 0 
L 2938 0 
L 1159 1709 
L 1159 0 
L 581 0 
L 581 4863 
z
" transform="scale(0.015625)"/>
      <path id="DejaVuSans-63" d="M 3122 3366 
L 3122 2828 
Q 2878 2963 2633 3030 
Q 2388 3097 2138 3097 
Q 1578 3097 1268 2742 
Q 959 2388 959 1747 
Q 959 1106 1268 751 
Q 1578 397 2138 397 
Q 2388 397 2633 464 
Q 2878 531 3122 666 
L 3122 134 
Q 2881 22 2623 -34 
Q 2366 -91 2075 -91 
Q 1284 -91 818 406 
Q 353 903 353 1747 
Q 353 2603 823 3093 
Q 1294 3584 2113 3584 
Q 2378 3584 2631 3529 
Q 2884 3475 3122 3366 
z
" transform="scale(0.015625)"/>
      <path id="DejaVuSans-6a" d="M 603 3500 
L 1178 3500 
L 1178 -63 
Q 1178 -731 923 -1031 
Q 669 -1331 103 -1331 
L -116 -1331 
L -116 -844 
L 38 -844 
Q 366 -844 484 -692 
Q 603 -541 603 -63 
L 603 3500 
z
M 603 4863 
L 1178 4863 
L 1178 4134 
L 603 4134 
L 603 4863 
z
" transform="scale(0.015625)"/>
      <path id="DejaVuSans-46" d="M 628 4666 
L 3309 4666 
L 3309 4134 
L 1259 4134 
L 1259 2759 
L 3109 2759 
L 3109 2228 
L 1259 2228 
L 1259 0 
L 628 0 
L 628 4666 
z
" transform="scale(0.015625)"/>
     </defs>
     <use xlink:href="#DejaVuSans-44"/>
     <use xlink:href="#DejaVuSans-6f" x="77.001953"/>
     <use xlink:href="#DejaVuSans-70" x="138.183594"/>
     <use xlink:href="#DejaVuSans-61" x="201.660156"/>
     <use xlink:href="#DejaVuSans-73" x="262.939453"/>
     <use xlink:href="#DejaVuSans-6f" x="315.039062"/>
     <use xlink:href="#DejaVuSans-77" x="376.220703"/>
     <use xlink:href="#DejaVuSans-61" x="458.007812"/>
     <use xlink:href="#DejaVuSans-6e" x="519.287109"/>
     <use xlink:href="#DejaVuSans-61" x="582.666016"/>
     <use xlink:href="#DejaVuSans-20" x="643.945312"/>
     <use xlink:href="#DejaVuSans-66" x="675.732422"/>
     <use xlink:href="#DejaVuSans-75" x="710.9375"/>
     <use xlink:href="#DejaVuSans-6e" x="774.316406"/>
     <use xlink:href="#DejaVuSans-6b" x="837.695312"/>
     <use xlink:href="#DejaVuSans-63" x="895.605469"/>
     <use xlink:href="#DejaVuSans-6a" x="950.585938"/>
     <use xlink:href="#DejaVuSans-61" x="978.369141"/>
     <use xlink:href="#DejaVuSans-20" x="1039.648438"/>
     <use xlink:href="#DejaVuSans-46" x="1071.435547"/>
    </g>
   </g>
  </g>
 </g>
 <defs>
  <clipPath id="pb69657e8ff">
   <rect x="90" y="51.84" width="558" height="332.64"/>
  </clipPath>
 </defs>
</svg>
