<?xml version="1.0" encoding="utf-8" standalone="no"?>
<!DOCTYPE svg PUBLIC "-//W3C//DTD SVG 1.1//EN"
  "http://www.w3.org/Graphics/SVG/1.1/DTD/svg11.dtd">
<svg xmlns:xlink="http://www.w3.org/1999/xlink" width="720pt" height="432pt" viewBox="0 0 720 432" xmlns="http://www.w3.org/2000/svg" version="1.1">
 <metadata>
  <rdf:RDF xmlns:dc="http://purl.org/dc/elements/1.1/" xmlns:cc="http://creativecommons.org/ns#" xmlns:rdf="http://www.w3.org/1999/02/22-rdf-syntax-ns#">
   <cc:Work>
    <dc:type rdf:resource="http://purl.org/dc/dcmitype/StillImage"/>
    <dc:date>2024-01-04T18:29:43.552196</dc:date>
    <dc:format>image/svg+xml</dc:format>
    <dc:creator>
     <cc:Agent>
      <dc:title>Matplotlib v3.8.2, https://matplotlib.org/</dc:title>
     </cc:Agent>
    </dc:creator>
   </cc:Work>
  </rdf:RDF>
 </metadata>
 <defs>
  <style type="text/css">*{stroke-linejoin: round; stroke-linecap: butt}</style>
 </defs>
 <g id="figure_1">
  <g id="patch_1">
   <path d="M 0 432 
L 720 432 
L 720 0 
L 0 0 
z
" style="fill: #ffffff"/>
  </g>
  <g id="axes_1">
   <g id="patch_2">
    <path d="M 90 384.48 
L 648 384.48 
L 648 51.84 
L 90 51.84 
z
" style="fill: #ffffff"/>
   </g>
   <g id="PathCollection_1">
    <defs>
     <path id="mfe43674291" d="M 0 3 
C 0.795609 3 1.55874 2.683901 2.12132 2.12132 
C 2.683901 1.55874 3 0.795609 3 0 
C 3 -0.795609 2.683901 -1.55874 2.12132 -2.12132 
C 1.55874 -2.683901 0.795609 -3 0 -3 
C -0.795609 -3 -1.55874 -2.683901 -2.12132 -2.12132 
C -2.683901 -1.55874 -3 -0.795609 -3 0 
C -3 0.795609 -2.683901 1.55874 -2.12132 2.12132 
C -1.55874 2.683901 -0.795609 3 0 3 
z
" style="stroke: #1f77b4"/>
    </defs>
    <g clip-path="url(#p75906c1be1)">
     <use xlink:href="#mfe43674291" x="622.310823" y="368.265957" style="fill: #1f77b4; stroke: #1f77b4"/>
     <use xlink:href="#mfe43674291" x="619.711511" y="368.142557" style="fill: #1f77b4; stroke: #1f77b4"/>
     <use xlink:href="#mfe43674291" x="614.53956" y="367.885591" style="fill: #1f77b4; stroke: #1f77b4"/>
     <use xlink:href="#mfe43674291" x="606.848041" y="367.472913" style="fill: #1f77b4; stroke: #1f77b4"/>
     <use xlink:href="#mfe43674291" x="596.715879" y="366.866222" style="fill: #1f77b4; stroke: #1f77b4"/>
     <use xlink:href="#mfe43674291" x="584.247043" y="366.003095" style="fill: #1f77b4; stroke: #1f77b4"/>
     <use xlink:href="#mfe43674291" x="569.569482" y="364.782236" style="fill: #1f77b4; stroke: #1f77b4"/>
     <use xlink:href="#mfe43674291" x="552.833807" y="363.035478" style="fill: #1f77b4; stroke: #1f77b4"/>
     <use xlink:href="#mfe43674291" x="534.211748" y="360.472005" style="fill: #1f77b4; stroke: #1f77b4"/>
     <use xlink:href="#mfe43674291" x="513.894393" y="356.559637" style="fill: #1f77b4; stroke: #1f77b4"/>
     <use xlink:href="#mfe43674291" x="492.090225" y="350.250751" style="fill: #1f77b4; stroke: #1f77b4"/>
     <use xlink:href="#mfe43674291" x="469.022985" y="339.285511" style="fill: #1f77b4; stroke: #1f77b4"/>
     <use xlink:href="#mfe43674291" x="444.929374" y="318.231603" style="fill: #1f77b4; stroke: #1f77b4"/>
     <use xlink:href="#mfe43674291" x="420.056625" y="272.740484" style="fill: #1f77b4; stroke: #1f77b4"/>
     <use xlink:href="#mfe43674291" x="394.659965" y="171.001951" style="fill: #1f77b4; stroke: #1f77b4"/>
     <use xlink:href="#mfe43674291" x="369" y="66.96" style="fill: #1f77b4; stroke: #1f77b4"/>
     <use xlink:href="#mfe43674291" x="343.340035" y="171.001951" style="fill: #1f77b4; stroke: #1f77b4"/>
     <use xlink:href="#mfe43674291" x="317.943375" y="272.740484" style="fill: #1f77b4; stroke: #1f77b4"/>
     <use xlink:href="#mfe43674291" x="293.070626" y="318.231603" style="fill: #1f77b4; stroke: #1f77b4"/>
     <use xlink:href="#mfe43674291" x="268.977015" y="339.285511" style="fill: #1f77b4; stroke: #1f77b4"/>
     <use xlink:href="#mfe43674291" x="245.909775" y="350.250751" style="fill: #1f77b4; stroke: #1f77b4"/>
     <use xlink:href="#mfe43674291" x="224.105607" y="356.559637" style="fill: #1f77b4; stroke: #1f77b4"/>
     <use xlink:href="#mfe43674291" x="203.788252" y="360.472005" style="fill: #1f77b4; stroke: #1f77b4"/>
     <use xlink:href="#mfe43674291" x="185.166193" y="363.035478" style="fill: #1f77b4; stroke: #1f77b4"/>
     <use xlink:href="#mfe43674291" x="168.430518" y="364.782236" style="fill: #1f77b4; stroke: #1f77b4"/>
     <use xlink:href="#mfe43674291" x="153.752957" y="366.003095" style="fill: #1f77b4; stroke: #1f77b4"/>
     <use xlink:href="#mfe43674291" x="141.284121" y="366.866222" style="fill: #1f77b4; stroke: #1f77b4"/>
     <use xlink:href="#mfe43674291" x="131.151959" y="367.472913" style="fill: #1f77b4; stroke: #1f77b4"/>
     <use xlink:href="#mfe43674291" x="123.46044" y="367.885591" style="fill: #1f77b4; stroke: #1f77b4"/>
     <use xlink:href="#mfe43674291" x="118.288489" y="368.142557" style="fill: #1f77b4; stroke: #1f77b4"/>
     <use xlink:href="#mfe43674291" x="115.689177" y="368.265957" style="fill: #1f77b4; stroke: #1f77b4"/>
    </g>
   </g>
   <g id="matplotlib.axis_1">
    <g id="xtick_1">
     <g id="line2d_1">
      <path d="M 115.363636 384.48 
L 115.363636 51.84 
" clip-path="url(#p75906c1be1)" style="fill: none; stroke: #b0b0b0; stroke-width: 0.8; stroke-linecap: square"/>
     </g>
     <g id="line2d_2">
      <defs>
       <path id="m266567045e" d="M 0 0 
L 0 3.5 
" style="stroke: #000000; stroke-width: 0.8"/>
      </defs>
      <g>
       <use xlink:href="#m266567045e" x="115.363636" y="384.48" style="stroke: #000000; stroke-width: 0.8"/>
      </g>
     </g>
     <g id="text_1">
      <!-- −1.00 -->
      <g transform="translate(100.04098 399.078438) scale(0.1 -0.1)">
       <defs>
        <path id="DejaVuSans-2212" d="M 678 2272 
L 4684 2272 
L 4684 1741 
L 678 1741 
L 678 2272 
z
" transform="scale(0.015625)"/>
        <path id="DejaVuSans-31" d="M 794 531 
L 1825 531 
L 1825 4091 
L 703 3866 
L 703 4441 
L 1819 4666 
L 2450 4666 
L 2450 531 
L 3481 531 
L 3481 0 
L 794 0 
L 794 531 
z
" transform="scale(0.015625)"/>
        <path id="DejaVuSans-2e" d="M 684 794 
L 1344 794 
L 1344 0 
L 684 0 
L 684 794 
z
" transform="scale(0.015625)"/>
        <path id="DejaVuSans-30" d="M 2034 4250 
Q 1547 4250 1301 3770 
Q 1056 3291 1056 2328 
Q 1056 1369 1301 889 
Q 1547 409 2034 409 
Q 2525 409 2770 889 
Q 3016 1369 3016 2328 
Q 3016 3291 2770 3770 
Q 2525 4250 2034 4250 
z
M 2034 4750 
Q 2819 4750 3233 4129 
Q 3647 3509 3647 2328 
Q 3647 1150 3233 529 
Q 2819 -91 2034 -91 
Q 1250 -91 836 529 
Q 422 1150 422 2328 
Q 422 3509 836 4129 
Q 1250 4750 2034 4750 
z
" transform="scale(0.015625)"/>
       </defs>
       <use xlink:href="#DejaVuSans-2212"/>
       <use xlink:href="#DejaVuSans-31" x="83.789062"/>
       <use xlink:href="#DejaVuSans-2e" x="147.412109"/>
       <use xlink:href="#DejaVuSans-30" x="179.199219"/>
       <use xlink:href="#DejaVuSans-30" x="242.822266"/>
      </g>
     </g>
    </g>
    <g id="xtick_2">
     <g id="line2d_3">
      <path d="M 178.772727 384.48 
L 178.772727 51.84 
" clip-path="url(#p75906c1be1)" style="fill: none; stroke: #b0b0b0; stroke-width: 0.8; stroke-linecap: square"/>
     </g>
     <g id="line2d_4">
      <g>
       <use xlink:href="#m266567045e" x="178.772727" y="384.48" style="stroke: #000000; stroke-width: 0.8"/>
      </g>
     </g>
     <g id="text_2">
      <!-- −0.75 -->
      <g transform="translate(163.450071 399.078438) scale(0.1 -0.1)">
       <defs>
        <path id="DejaVuSans-37" d="M 525 4666 
L 3525 4666 
L 3525 4397 
L 1831 0 
L 1172 0 
L 2766 4134 
L 525 4134 
L 525 4666 
z
" transform="scale(0.015625)"/>
        <path id="DejaVuSans-35" d="M 691 4666 
L 3169 4666 
L 3169 4134 
L 1269 4134 
L 1269 2991 
Q 1406 3038 1543 3061 
Q 1681 3084 1819 3084 
Q 2600 3084 3056 2656 
Q 3513 2228 3513 1497 
Q 3513 744 3044 326 
Q 2575 -91 1722 -91 
Q 1428 -91 1123 -41 
Q 819 9 494 109 
L 494 744 
Q 775 591 1075 516 
Q 1375 441 1709 441 
Q 2250 441 2565 725 
Q 2881 1009 2881 1497 
Q 2881 1984 2565 2268 
Q 2250 2553 1709 2553 
Q 1456 2553 1204 2497 
Q 953 2441 691 2322 
L 691 4666 
z
" transform="scale(0.015625)"/>
       </defs>
       <use xlink:href="#DejaVuSans-2212"/>
       <use xlink:href="#DejaVuSans-30" x="83.789062"/>
       <use xlink:href="#DejaVuSans-2e" x="147.412109"/>
       <use xlink:href="#DejaVuSans-37" x="179.199219"/>
       <use xlink:href="#DejaVuSans-35" x="242.822266"/>
      </g>
     </g>
    </g>
    <g id="xtick_3">
     <g id="line2d_5">
      <path d="M 242.181818 384.48 
L 242.181818 51.84 
" clip-path="url(#p75906c1be1)" style="fill: none; stroke: #b0b0b0; stroke-width: 0.8; stroke-linecap: square"/>
     </g>
     <g id="line2d_6">
      <g>
       <use xlink:href="#m266567045e" x="242.181818" y="384.48" style="stroke: #000000; stroke-width: 0.8"/>
      </g>
     </g>
     <g id="text_3">
      <!-- −0.50 -->
      <g transform="translate(226.859162 399.078438) scale(0.1 -0.1)">
       <use xlink:href="#DejaVuSans-2212"/>
       <use xlink:href="#DejaVuSans-30" x="83.789062"/>
       <use xlink:href="#DejaVuSans-2e" x="147.412109"/>
       <use xlink:href="#DejaVuSans-35" x="179.199219"/>
       <use xlink:href="#DejaVuSans-30" x="242.822266"/>
      </g>
     </g>
    </g>
    <g id="xtick_4">
     <g id="line2d_7">
      <path d="M 305.590909 384.48 
L 305.590909 51.84 
" clip-path="url(#p75906c1be1)" style="fill: none; stroke: #b0b0b0; stroke-width: 0.8; stroke-linecap: square"/>
     </g>
     <g id="line2d_8">
      <g>
       <use xlink:href="#m266567045e" x="305.590909" y="384.48" style="stroke: #000000; stroke-width: 0.8"/>
      </g>
     </g>
     <g id="text_4">
      <!-- −0.25 -->
      <g transform="translate(290.268253 399.078438) scale(0.1 -0.1)">
       <defs>
        <path id="DejaVuSans-32" d="M 1228 531 
L 3431 531 
L 3431 0 
L 469 0 
L 469 531 
Q 828 903 1448 1529 
Q 2069 2156 2228 2338 
Q 2531 2678 2651 2914 
Q 2772 3150 2772 3378 
Q 2772 3750 2511 3984 
Q 2250 4219 1831 4219 
Q 1534 4219 1204 4116 
Q 875 4013 500 3803 
L 500 4441 
Q 881 4594 1212 4672 
Q 1544 4750 1819 4750 
Q 2544 4750 2975 4387 
Q 3406 4025 3406 3419 
Q 3406 3131 3298 2873 
Q 3191 2616 2906 2266 
Q 2828 2175 2409 1742 
Q 1991 1309 1228 531 
z
" transform="scale(0.015625)"/>
       </defs>
       <use xlink:href="#DejaVuSans-2212"/>
       <use xlink:href="#DejaVuSans-30" x="83.789062"/>
       <use xlink:href="#DejaVuSans-2e" x="147.412109"/>
       <use xlink:href="#DejaVuSans-32" x="179.199219"/>
       <use xlink:href="#DejaVuSans-35" x="242.822266"/>
      </g>
     </g>
    </g>
    <g id="xtick_5">
     <g id="line2d_9">
      <path d="M 369 384.48 
L 369 51.84 
" clip-path="url(#p75906c1be1)" style="fill: none; stroke: #b0b0b0; stroke-width: 0.8; stroke-linecap: square"/>
     </g>
     <g id="line2d_10">
      <g>
       <use xlink:href="#m266567045e" x="369" y="384.48" style="stroke: #000000; stroke-width: 0.8"/>
      </g>
     </g>
     <g id="text_5">
      <!-- 0.00 -->
      <g transform="translate(357.867188 399.078438) scale(0.1 -0.1)">
       <use xlink:href="#DejaVuSans-30"/>
       <use xlink:href="#DejaVuSans-2e" x="63.623047"/>
       <use xlink:href="#DejaVuSans-30" x="95.410156"/>
       <use xlink:href="#DejaVuSans-30" x="159.033203"/>
      </g>
     </g>
    </g>
    <g id="xtick_6">
     <g id="line2d_11">
      <path d="M 432.409091 384.48 
L 432.409091 51.84 
" clip-path="url(#p75906c1be1)" style="fill: none; stroke: #b0b0b0; stroke-width: 0.8; stroke-linecap: square"/>
     </g>
     <g id="line2d_12">
      <g>
       <use xlink:href="#m266567045e" x="432.409091" y="384.48" style="stroke: #000000; stroke-width: 0.8"/>
      </g>
     </g>
     <g id="text_6">
      <!-- 0.25 -->
      <g transform="translate(421.276278 399.078438) scale(0.1 -0.1)">
       <use xlink:href="#DejaVuSans-30"/>
       <use xlink:href="#DejaVuSans-2e" x="63.623047"/>
       <use xlink:href="#DejaVuSans-32" x="95.410156"/>
       <use xlink:href="#DejaVuSans-35" x="159.033203"/>
      </g>
     </g>
    </g>
    <g id="xtick_7">
     <g id="line2d_13">
      <path d="M 495.818182 384.48 
L 495.818182 51.84 
" clip-path="url(#p75906c1be1)" style="fill: none; stroke: #b0b0b0; stroke-width: 0.8; stroke-linecap: square"/>
     </g>
     <g id="line2d_14">
      <g>
       <use xlink:href="#m266567045e" x="495.818182" y="384.48" style="stroke: #000000; stroke-width: 0.8"/>
      </g>
     </g>
     <g id="text_7">
      <!-- 0.50 -->
      <g transform="translate(484.685369 399.078438) scale(0.1 -0.1)">
       <use xlink:href="#DejaVuSans-30"/>
       <use xlink:href="#DejaVuSans-2e" x="63.623047"/>
       <use xlink:href="#DejaVuSans-35" x="95.410156"/>
       <use xlink:href="#DejaVuSans-30" x="159.033203"/>
      </g>
     </g>
    </g>
    <g id="xtick_8">
     <g id="line2d_15">
      <path d="M 559.227273 384.48 
L 559.227273 51.84 
" clip-path="url(#p75906c1be1)" style="fill: none; stroke: #b0b0b0; stroke-width: 0.8; stroke-linecap: square"/>
     </g>
     <g id="line2d_16">
      <g>
       <use xlink:href="#m266567045e" x="559.227273" y="384.48" style="stroke: #000000; stroke-width: 0.8"/>
      </g>
     </g>
     <g id="text_8">
      <!-- 0.75 -->
      <g transform="translate(548.09446 399.078438) scale(0.1 -0.1)">
       <use xlink:href="#DejaVuSans-30"/>
       <use xlink:href="#DejaVuSans-2e" x="63.623047"/>
       <use xlink:href="#DejaVuSans-37" x="95.410156"/>
       <use xlink:href="#DejaVuSans-35" x="159.033203"/>
      </g>
     </g>
    </g>
    <g id="xtick_9">
     <g id="line2d_17">
      <path d="M 622.636364 384.48 
L 622.636364 51.84 
" clip-path="url(#p75906c1be1)" style="fill: none; stroke: #b0b0b0; stroke-width: 0.8; stroke-linecap: square"/>
     </g>
     <g id="line2d_18">
      <g>
       <use xlink:href="#m266567045e" x="622.636364" y="384.48" style="stroke: #000000; stroke-width: 0.8"/>
      </g>
     </g>
     <g id="text_9">
      <!-- 1.00 -->
      <g transform="translate(611.503551 399.078438) scale(0.1 -0.1)">
       <use xlink:href="#DejaVuSans-31"/>
       <use xlink:href="#DejaVuSans-2e" x="63.623047"/>
       <use xlink:href="#DejaVuSans-30" x="95.410156"/>
       <use xlink:href="#DejaVuSans-30" x="159.033203"/>
      </g>
     </g>
    </g>
   </g>
   <g id="matplotlib.axis_2">
    <g id="ytick_1">
     <g id="line2d_19">
      <path d="M 90 374.307575 
L 648 374.307575 
" clip-path="url(#p75906c1be1)" style="fill: none; stroke: #b0b0b0; stroke-width: 0.8; stroke-linecap: square"/>
     </g>
     <g id="line2d_20">
      <defs>
       <path id="m70b52c0aad" d="M 0 0 
L -3.5 0 
" style="stroke: #000000; stroke-width: 0.8"/>
      </defs>
      <g>
       <use xlink:href="#m70b52c0aad" x="90" y="374.307575" style="stroke: #000000; stroke-width: 0.8"/>
      </g>
     </g>
     <g id="text_10">
      <!-- 0.0 -->
      <g transform="translate(67.096875 378.106794) scale(0.1 -0.1)">
       <use xlink:href="#DejaVuSans-30"/>
       <use xlink:href="#DejaVuSans-2e" x="63.623047"/>
       <use xlink:href="#DejaVuSans-30" x="95.410156"/>
      </g>
     </g>
    </g>
    <g id="ytick_2">
     <g id="line2d_21">
      <path d="M 90 312.83806 
L 648 312.83806 
" clip-path="url(#p75906c1be1)" style="fill: none; stroke: #b0b0b0; stroke-width: 0.8; stroke-linecap: square"/>
     </g>
     <g id="line2d_22">
      <g>
       <use xlink:href="#m70b52c0aad" x="90" y="312.83806" style="stroke: #000000; stroke-width: 0.8"/>
      </g>
     </g>
     <g id="text_11">
      <!-- 0.2 -->
      <g transform="translate(67.096875 316.637279) scale(0.1 -0.1)">
       <use xlink:href="#DejaVuSans-30"/>
       <use xlink:href="#DejaVuSans-2e" x="63.623047"/>
       <use xlink:href="#DejaVuSans-32" x="95.410156"/>
      </g>
     </g>
    </g>
    <g id="ytick_3">
     <g id="line2d_23">
      <path d="M 90 251.368545 
L 648 251.368545 
" clip-path="url(#p75906c1be1)" style="fill: none; stroke: #b0b0b0; stroke-width: 0.8; stroke-linecap: square"/>
     </g>
     <g id="line2d_24">
      <g>
       <use xlink:href="#m70b52c0aad" x="90" y="251.368545" style="stroke: #000000; stroke-width: 0.8"/>
      </g>
     </g>
     <g id="text_12">
      <!-- 0.4 -->
      <g transform="translate(67.096875 255.167764) scale(0.1 -0.1)">
       <defs>
        <path id="DejaVuSans-34" d="M 2419 4116 
L 825 1625 
L 2419 1625 
L 2419 4116 
z
M 2253 4666 
L 3047 4666 
L 3047 1625 
L 3713 1625 
L 3713 1100 
L 3047 1100 
L 3047 0 
L 2419 0 
L 2419 1100 
L 313 1100 
L 313 1709 
L 2253 4666 
z
" transform="scale(0.015625)"/>
       </defs>
       <use xlink:href="#DejaVuSans-30"/>
       <use xlink:href="#DejaVuSans-2e" x="63.623047"/>
       <use xlink:href="#DejaVuSans-34" x="95.410156"/>
      </g>
     </g>
    </g>
    <g id="ytick_4">
     <g id="line2d_25">
      <path d="M 90 189.89903 
L 648 189.89903 
" clip-path="url(#p75906c1be1)" style="fill: none; stroke: #b0b0b0; stroke-width: 0.8; stroke-linecap: square"/>
     </g>
     <g id="line2d_26">
      <g>
       <use xlink:href="#m70b52c0aad" x="90" y="189.89903" style="stroke: #000000; stroke-width: 0.8"/>
      </g>
     </g>
     <g id="text_13">
      <!-- 0.6 -->
      <g transform="translate(67.096875 193.698249) scale(0.1 -0.1)">
       <defs>
        <path id="DejaVuSans-36" d="M 2113 2584 
Q 1688 2584 1439 2293 
Q 1191 2003 1191 1497 
Q 1191 994 1439 701 
Q 1688 409 2113 409 
Q 2538 409 2786 701 
Q 3034 994 3034 1497 
Q 3034 2003 2786 2293 
Q 2538 2584 2113 2584 
z
M 3366 4563 
L 3366 3988 
Q 3128 4100 2886 4159 
Q 2644 4219 2406 4219 
Q 1781 4219 1451 3797 
Q 1122 3375 1075 2522 
Q 1259 2794 1537 2939 
Q 1816 3084 2150 3084 
Q 2853 3084 3261 2657 
Q 3669 2231 3669 1497 
Q 3669 778 3244 343 
Q 2819 -91 2113 -91 
Q 1303 -91 875 529 
Q 447 1150 447 2328 
Q 447 3434 972 4092 
Q 1497 4750 2381 4750 
Q 2619 4750 2861 4703 
Q 3103 4656 3366 4563 
z
" transform="scale(0.015625)"/>
       </defs>
       <use xlink:href="#DejaVuSans-30"/>
       <use xlink:href="#DejaVuSans-2e" x="63.623047"/>
       <use xlink:href="#DejaVuSans-36" x="95.410156"/>
      </g>
     </g>
    </g>
    <g id="ytick_5">
     <g id="line2d_27">
      <path d="M 90 128.429515 
L 648 128.429515 
" clip-path="url(#p75906c1be1)" style="fill: none; stroke: #b0b0b0; stroke-width: 0.8; stroke-linecap: square"/>
     </g>
     <g id="line2d_28">
      <g>
       <use xlink:href="#m70b52c0aad" x="90" y="128.429515" style="stroke: #000000; stroke-width: 0.8"/>
      </g>
     </g>
     <g id="text_14">
      <!-- 0.8 -->
      <g transform="translate(67.096875 132.228734) scale(0.1 -0.1)">
       <defs>
        <path id="DejaVuSans-38" d="M 2034 2216 
Q 1584 2216 1326 1975 
Q 1069 1734 1069 1313 
Q 1069 891 1326 650 
Q 1584 409 2034 409 
Q 2484 409 2743 651 
Q 3003 894 3003 1313 
Q 3003 1734 2745 1975 
Q 2488 2216 2034 2216 
z
M 1403 2484 
Q 997 2584 770 2862 
Q 544 3141 544 3541 
Q 544 4100 942 4425 
Q 1341 4750 2034 4750 
Q 2731 4750 3128 4425 
Q 3525 4100 3525 3541 
Q 3525 3141 3298 2862 
Q 3072 2584 2669 2484 
Q 3125 2378 3379 2068 
Q 3634 1759 3634 1313 
Q 3634 634 3220 271 
Q 2806 -91 2034 -91 
Q 1263 -91 848 271 
Q 434 634 434 1313 
Q 434 1759 690 2068 
Q 947 2378 1403 2484 
z
M 1172 3481 
Q 1172 3119 1398 2916 
Q 1625 2713 2034 2713 
Q 2441 2713 2670 2916 
Q 2900 3119 2900 3481 
Q 2900 3844 2670 4047 
Q 2441 4250 2034 4250 
Q 1625 4250 1398 4047 
Q 1172 3844 1172 3481 
z
" transform="scale(0.015625)"/>
       </defs>
       <use xlink:href="#DejaVuSans-30"/>
       <use xlink:href="#DejaVuSans-2e" x="63.623047"/>
       <use xlink:href="#DejaVuSans-38" x="95.410156"/>
      </g>
     </g>
    </g>
    <g id="ytick_6">
     <g id="line2d_29">
      <path d="M 90 66.96 
L 648 66.96 
" clip-path="url(#p75906c1be1)" style="fill: none; stroke: #b0b0b0; stroke-width: 0.8; stroke-linecap: square"/>
     </g>
     <g id="line2d_30">
      <g>
       <use xlink:href="#m70b52c0aad" x="90" y="66.96" style="stroke: #000000; stroke-width: 0.8"/>
      </g>
     </g>
     <g id="text_15">
      <!-- 1.0 -->
      <g transform="translate(67.096875 70.759219) scale(0.1 -0.1)">
       <use xlink:href="#DejaVuSans-31"/>
       <use xlink:href="#DejaVuSans-2e" x="63.623047"/>
       <use xlink:href="#DejaVuSans-30" x="95.410156"/>
      </g>
     </g>
    </g>
   </g>
   <g id="line2d_31">
    <path d="M 115.363636 369.36 
L 115.871417 367.845346 
L 116.379197 367.222493 
L 116.886978 367.160274 
L 117.394758 367.415724 
L 119.42588 368.90567 
L 120.441441 369.134811 
L 121.457002 368.94223 
L 122.472563 368.464619 
L 125.011466 367.063932 
L 126.027027 366.718321 
L 127.042588 366.569622 
L 128.058149 366.610854 
L 129.581491 366.948224 
L 134.151515 368.285463 
L 135.674857 368.376789 
L 137.198198 368.207441 
L 138.72154 367.815015 
L 141.260442 366.875593 
L 144.307125 365.786402 
L 146.338247 365.342777 
L 147.861589 365.2139 
L 149.892711 365.303317 
L 152.431613 365.72144 
L 157.509419 366.677042 
L 159.540541 366.796472 
L 161.571663 366.673727 
L 163.602785 366.30996 
L 166.141687 365.583553 
L 174.266175 362.963088 
L 176.297297 362.616934 
L 178.328419 362.465453 
L 180.867322 362.527425 
L 183.914005 362.860576 
L 189.49959 363.534852 
L 192.038493 363.587566 
L 194.069615 363.436749 
L 196.100737 363.099177 
L 198.63964 362.428032 
L 201.686323 361.334426 
L 210.826372 357.76674 
L 213.365274 357.105471 
L 215.904177 356.680055 
L 218.443079 356.479551 
L 221.489762 356.467398 
L 229.614251 356.582039 
L 232.153153 356.315702 
L 234.184275 355.913716 
L 236.215397 355.325642 
L 238.7543 354.326483 
L 241.293202 353.058309 
L 244.339885 351.257822 
L 249.925471 347.599146 
L 253.987715 345.073865 
L 257.034398 343.440585 
L 260.081081 342.086799 
L 263.127764 340.994018 
L 267.697789 339.651491 
L 271.760033 338.407459 
L 274.298935 337.415578 
L 276.330057 336.423219 
L 278.361179 335.207117 
L 280.392301 333.733123 
L 282.423423 331.977893 
L 284.454545 329.930142 
L 286.485667 327.591053 
L 289.02457 324.27866 
L 291.563473 320.581248 
L 294.610156 315.733055 
L 298.6724 308.795294 
L 306.289107 295.208363 
L 312.382473 284.024287 
L 315.936937 277.0176 
L 318.475839 271.553407 
L 321.014742 265.526076 
L 323.045864 260.186599 
L 325.076986 254.297931 
L 327.108108 247.78678 
L 329.13923 240.593565 
L 331.170352 232.677172 
L 333.709255 221.739101 
L 336.248157 209.666456 
L 338.78706 196.552442 
L 341.833743 179.681512 
L 346.911548 149.989071 
L 351.481572 123.571937 
L 354.020475 109.928057 
L 356.559378 97.555252 
L 358.5905 88.842873 
L 360.113841 83.124843 
L 361.637183 78.185699 
L 363.160524 74.087393 
L 364.176085 71.848444 
L 365.191646 70.019281 
L 366.207207 68.610363 
L 367.222768 67.629777 
L 368.238329 67.083168 
L 369.25389 66.973689 
L 370.269451 67.30197 
L 371.285012 68.066118 
L 372.300573 69.26173 
L 373.316134 70.881931 
L 374.331695 72.917439 
L 375.347256 75.356642 
L 376.870598 79.74152 
L 378.393939 84.947633 
L 379.917281 90.909978 
L 381.948403 99.908415 
L 383.979525 109.928057 
L 386.518428 123.571937 
L 390.072891 144.006192 
L 397.689599 188.250654 
L 400.736282 204.538114 
L 403.275184 217.042615 
L 405.814087 228.441039 
L 408.352989 238.683402 
L 410.384111 246.054376 
L 412.415233 252.731101 
L 414.446355 258.768969 
L 416.477477 264.238311 
L 419.01638 270.398329 
L 421.555283 275.961899 
L 424.601966 282.079468 
L 428.66421 289.685967 
L 437.296478 305.210444 
L 442.374283 314.039123 
L 445.928747 319.801319 
L 448.97543 324.27866 
L 451.514333 327.591053 
L 453.545455 329.930142 
L 455.576577 331.977893 
L 457.607699 333.733123 
L 459.638821 335.207117 
L 461.669943 336.423219 
L 463.701065 337.415578 
L 466.239967 338.407459 
L 469.794431 339.507607 
L 475.887797 341.333091 
L 478.93448 342.506796 
L 481.981163 343.954935 
L 485.027846 345.674235 
L 489.09009 348.267583 
L 495.183456 352.189395 
L 498.230139 353.849095 
L 500.769042 354.960535 
L 503.307944 355.784472 
L 505.339066 356.232004 
L 507.877969 356.547564 
L 510.416871 356.642616 
L 514.479115 356.536425 
L 519.04914 356.462859 
L 521.588043 356.622984 
L 524.126945 357.001311 
L 526.665848 357.616407 
L 529.20475 358.448012 
L 532.759214 359.860884 
L 538.344799 362.092556 
L 540.883702 362.861985 
L 543.422604 363.369908 
L 545.453726 363.567025 
L 547.992629 363.564395 
L 551.039312 363.28007 
L 557.640459 362.495523 
L 560.179361 362.485326 
L 562.210483 362.685322 
L 564.241605 363.078875 
L 566.780508 363.805489 
L 574.904996 366.421801 
L 576.936118 366.727823 
L 578.96724 366.788352 
L 580.998362 366.613642 
L 583.537265 366.155321 
L 587.599509 365.365254 
L 589.630631 365.209888 
L 591.153972 365.279958 
L 592.677314 365.527517 
L 594.708436 366.108892 
L 600.801802 368.207441 
L 602.325143 368.376789 
L 603.848485 368.285463 
L 605.371826 367.950931 
L 609.941851 366.610854 
L 610.957412 366.569622 
L 611.972973 366.718321 
L 612.988534 367.063932 
L 614.511876 367.86916 
L 616.035217 368.728551 
L 617.050778 369.084258 
L 618.066339 369.078107 
L 619.0819 368.620558 
L 621.113022 367.160274 
L 621.620803 367.222493 
L 622.128583 367.845346 
L 622.636364 369.36 
L 622.636364 369.36 
" clip-path="url(#p75906c1be1)" style="fill: none; stroke: #ffa500; stroke-width: 1.5; stroke-linecap: square"/>
   </g>
   <g id="line2d_32">
    <path d="M 115.363636 368.281152 
L 134.659296 367.271514 
L 151.416052 366.175827 
L 166.141687 364.98949 
L 178.8362 363.748065 
L 190.007371 362.441344 
L 200.162981 361.034397 
L 209.30303 359.54663 
L 217.427518 358.007977 
L 225.044226 356.341016 
L 232.153153 354.548996 
L 238.246519 352.796404 
L 244.339885 350.806809 
L 249.925471 348.738061 
L 255.003276 346.619204 
L 259.573301 344.487269 
L 264.143325 342.10952 
L 268.205569 339.759523 
L 272.267813 337.155044 
L 276.330057 334.260162 
L 279.884521 331.45608 
L 283.438984 328.365024 
L 286.993448 324.949524 
L 290.040131 321.731211 
L 293.086814 318.212051 
L 296.133497 314.357194 
L 299.18018 310.127395 
L 302.226863 305.478548 
L 305.273546 300.361235 
L 307.812449 295.69938 
L 310.351351 290.639021 
L 312.890254 285.142273 
L 315.429156 279.168513 
L 317.968059 272.674704 
L 320.506962 265.615993 
L 323.045864 257.946705 
L 325.584767 249.621872 
L 328.123669 240.599481 
L 330.662572 230.84365 
L 333.709255 218.133836 
L 336.755938 204.320589 
L 339.802621 189.445136 
L 343.357084 170.910483 
L 348.434889 142.994309 
L 353.512695 115.253542 
L 356.051597 102.393285 
L 358.082719 93.017368 
L 360.113841 84.732028 
L 361.637183 79.386281 
L 363.160524 74.895317 
L 364.176085 72.419985 
L 365.191646 70.385967 
L 366.207207 68.811951 
L 367.222768 67.712662 
L 368.238329 67.098521 
L 368.74611 66.975397 
L 369.25389 66.975397 
L 369.761671 67.098521 
L 370.777232 67.712662 
L 371.792793 68.811951 
L 372.808354 70.385967 
L 373.823915 72.419985 
L 374.839476 74.895317 
L 376.362817 79.386281 
L 377.886159 84.732028 
L 379.4095 90.833702 
L 381.440622 99.961246 
L 383.979525 112.601227 
L 387.533989 131.725468 
L 396.674038 181.642147 
L 400.228501 199.476139 
L 403.275184 213.651282 
L 406.321867 226.729794 
L 409.36855 238.707985 
L 411.907453 247.874459 
L 414.446355 256.335586 
L 416.985258 264.132443 
L 419.524161 271.309612 
L 422.063063 277.912769 
L 424.601966 283.987027 
L 427.140868 289.575844 
L 430.187551 295.69938 
L 433.234234 301.248919 
L 436.280917 306.284485 
L 439.3276 310.860208 
L 442.374283 315.02459 
L 445.420966 318.820897 
L 448.467649 322.287608 
L 451.514333 325.458885 
L 455.068796 328.825536 
L 458.62326 331.873423 
L 462.177723 334.639275 
L 466.239967 337.495695 
L 470.302211 340.066512 
L 474.364455 342.386961 
L 478.93448 344.735665 
L 483.504505 346.842336 
L 488.58231 348.936864 
L 494.167895 350.982657 
L 499.753481 352.796404 
L 505.846847 354.548996 
L 512.447993 356.221093 
L 519.556921 357.799193 
L 527.681409 359.3663 
L 536.313677 360.802269 
L 545.961507 362.178197 
L 556.624898 363.470498 
L 568.81163 364.712103 
L 582.521704 365.872044 
L 597.755119 366.932062 
L 615.527437 367.935891 
L 622.636364 368.281152 
L 622.636364 368.281152 
" clip-path="url(#p75906c1be1)" style="fill: none; stroke: #008000; stroke-width: 1.5; stroke-linecap: square"/>
   </g>
   <g id="patch_3">
    <path d="M 90 384.48 
L 90 51.84 
" style="fill: none; stroke: #000000; stroke-width: 0.8; stroke-linejoin: miter; stroke-linecap: square"/>
   </g>
   <g id="patch_4">
    <path d="M 648 384.48 
L 648 51.84 
" style="fill: none; stroke: #000000; stroke-width: 0.8; stroke-linejoin: miter; stroke-linecap: square"/>
   </g>
   <g id="patch_5">
    <path d="M 90 384.48 
L 648 384.48 
" style="fill: none; stroke: #000000; stroke-width: 0.8; stroke-linejoin: miter; stroke-linecap: square"/>
   </g>
   <g id="patch_6">
    <path d="M 90 51.84 
L 648 51.84 
" style="fill: none; stroke: #000000; stroke-width: 0.8; stroke-linejoin: miter; stroke-linecap: square"/>
   </g>
   <g id="text_16">
    <!-- Interpolacja dla 31 węzłów Siatka Czebyszewa -->
    <g transform="translate(229.604062 45.84) scale(0.12 -0.12)">
     <defs>
      <path id="DejaVuSans-49" d="M 628 4666 
L 1259 4666 
L 1259 0 
L 628 0 
L 628 4666 
z
" transform="scale(0.015625)"/>
      <path id="DejaVuSans-6e" d="M 3513 2113 
L 3513 0 
L 2938 0 
L 2938 2094 
Q 2938 2591 2744 2837 
Q 2550 3084 2163 3084 
Q 1697 3084 1428 2787 
Q 1159 2491 1159 1978 
L 1159 0 
L 581 0 
L 581 3500 
L 1159 3500 
L 1159 2956 
Q 1366 3272 1645 3428 
Q 1925 3584 2291 3584 
Q 2894 3584 3203 3211 
Q 3513 2838 3513 2113 
z
" transform="scale(0.015625)"/>
      <path id="DejaVuSans-74" d="M 1172 4494 
L 1172 3500 
L 2356 3500 
L 2356 3053 
L 1172 3053 
L 1172 1153 
Q 1172 725 1289 603 
Q 1406 481 1766 481 
L 2356 481 
L 2356 0 
L 1766 0 
Q 1100 0 847 248 
Q 594 497 594 1153 
L 594 3053 
L 172 3053 
L 172 3500 
L 594 3500 
L 594 4494 
L 1172 4494 
z
" transform="scale(0.015625)"/>
      <path id="DejaVuSans-65" d="M 3597 1894 
L 3597 1613 
L 953 1613 
Q 991 1019 1311 708 
Q 1631 397 2203 397 
Q 2534 397 2845 478 
Q 3156 559 3463 722 
L 3463 178 
Q 3153 47 2828 -22 
Q 2503 -91 2169 -91 
Q 1331 -91 842 396 
Q 353 884 353 1716 
Q 353 2575 817 3079 
Q 1281 3584 2069 3584 
Q 2775 3584 3186 3129 
Q 3597 2675 3597 1894 
z
M 3022 2063 
Q 3016 2534 2758 2815 
Q 2500 3097 2075 3097 
Q 1594 3097 1305 2825 
Q 1016 2553 972 2059 
L 3022 2063 
z
" transform="scale(0.015625)"/>
      <path id="DejaVuSans-72" d="M 2631 2963 
Q 2534 3019 2420 3045 
Q 2306 3072 2169 3072 
Q 1681 3072 1420 2755 
Q 1159 2438 1159 1844 
L 1159 0 
L 581 0 
L 581 3500 
L 1159 3500 
L 1159 2956 
Q 1341 3275 1631 3429 
Q 1922 3584 2338 3584 
Q 2397 3584 2469 3576 
Q 2541 3569 2628 3553 
L 2631 2963 
z
" transform="scale(0.015625)"/>
      <path id="DejaVuSans-70" d="M 1159 525 
L 1159 -1331 
L 581 -1331 
L 581 3500 
L 1159 3500 
L 1159 2969 
Q 1341 3281 1617 3432 
Q 1894 3584 2278 3584 
Q 2916 3584 3314 3078 
Q 3713 2572 3713 1747 
Q 3713 922 3314 415 
Q 2916 -91 2278 -91 
Q 1894 -91 1617 61 
Q 1341 213 1159 525 
z
M 3116 1747 
Q 3116 2381 2855 2742 
Q 2594 3103 2138 3103 
Q 1681 3103 1420 2742 
Q 1159 2381 1159 1747 
Q 1159 1113 1420 752 
Q 1681 391 2138 391 
Q 2594 391 2855 752 
Q 3116 1113 3116 1747 
z
" transform="scale(0.015625)"/>
      <path id="DejaVuSans-6f" d="M 1959 3097 
Q 1497 3097 1228 2736 
Q 959 2375 959 1747 
Q 959 1119 1226 758 
Q 1494 397 1959 397 
Q 2419 397 2687 759 
Q 2956 1122 2956 1747 
Q 2956 2369 2687 2733 
Q 2419 3097 1959 3097 
z
M 1959 3584 
Q 2709 3584 3137 3096 
Q 3566 2609 3566 1747 
Q 3566 888 3137 398 
Q 2709 -91 1959 -91 
Q 1206 -91 779 398 
Q 353 888 353 1747 
Q 353 2609 779 3096 
Q 1206 3584 1959 3584 
z
" transform="scale(0.015625)"/>
      <path id="DejaVuSans-6c" d="M 603 4863 
L 1178 4863 
L 1178 0 
L 603 0 
L 603 4863 
z
" transform="scale(0.015625)"/>
      <path id="DejaVuSans-61" d="M 2194 1759 
Q 1497 1759 1228 1600 
Q 959 1441 959 1056 
Q 959 750 1161 570 
Q 1363 391 1709 391 
Q 2188 391 2477 730 
Q 2766 1069 2766 1631 
L 2766 1759 
L 2194 1759 
z
M 3341 1997 
L 3341 0 
L 2766 0 
L 2766 531 
Q 2569 213 2275 61 
Q 1981 -91 1556 -91 
Q 1019 -91 701 211 
Q 384 513 384 1019 
Q 384 1609 779 1909 
Q 1175 2209 1959 2209 
L 2766 2209 
L 2766 2266 
Q 2766 2663 2505 2880 
Q 2244 3097 1772 3097 
Q 1472 3097 1187 3025 
Q 903 2953 641 2809 
L 641 3341 
Q 956 3463 1253 3523 
Q 1550 3584 1831 3584 
Q 2591 3584 2966 3190 
Q 3341 2797 3341 1997 
z
" transform="scale(0.015625)"/>
      <path id="DejaVuSans-63" d="M 3122 3366 
L 3122 2828 
Q 2878 2963 2633 3030 
Q 2388 3097 2138 3097 
Q 1578 3097 1268 2742 
Q 959 2388 959 1747 
Q 959 1106 1268 751 
Q 1578 397 2138 397 
Q 2388 397 2633 464 
Q 2878 531 3122 666 
L 3122 134 
Q 2881 22 2623 -34 
Q 2366 -91 2075 -91 
Q 1284 -91 818 406 
Q 353 903 353 1747 
Q 353 2603 823 3093 
Q 1294 3584 2113 3584 
Q 2378 3584 2631 3529 
Q 2884 3475 3122 3366 
z
" transform="scale(0.015625)"/>
      <path id="DejaVuSans-6a" d="M 603 3500 
L 1178 3500 
L 1178 -63 
Q 1178 -731 923 -1031 
Q 669 -1331 103 -1331 
L -116 -1331 
L -116 -844 
L 38 -844 
Q 366 -844 484 -692 
Q 603 -541 603 -63 
L 603 3500 
z
M 603 4863 
L 1178 4863 
L 1178 4134 
L 603 4134 
L 603 4863 
z
" transform="scale(0.015625)"/>
      <path id="DejaVuSans-20" transform="scale(0.015625)"/>
      <path id="DejaVuSans-64" d="M 2906 2969 
L 2906 4863 
L 3481 4863 
L 3481 0 
L 2906 0 
L 2906 525 
Q 2725 213 2448 61 
Q 2172 -91 1784 -91 
Q 1150 -91 751 415 
Q 353 922 353 1747 
Q 353 2572 751 3078 
Q 1150 3584 1784 3584 
Q 2172 3584 2448 3432 
Q 2725 3281 2906 2969 
z
M 947 1747 
Q 947 1113 1208 752 
Q 1469 391 1925 391 
Q 2381 391 2643 752 
Q 2906 1113 2906 1747 
Q 2906 2381 2643 2742 
Q 2381 3103 1925 3103 
Q 1469 3103 1208 2742 
Q 947 2381 947 1747 
z
" transform="scale(0.015625)"/>
      <path id="DejaVuSans-33" d="M 2597 2516 
Q 3050 2419 3304 2112 
Q 3559 1806 3559 1356 
Q 3559 666 3084 287 
Q 2609 -91 1734 -91 
Q 1441 -91 1130 -33 
Q 819 25 488 141 
L 488 750 
Q 750 597 1062 519 
Q 1375 441 1716 441 
Q 2309 441 2620 675 
Q 2931 909 2931 1356 
Q 2931 1769 2642 2001 
Q 2353 2234 1838 2234 
L 1294 2234 
L 1294 2753 
L 1863 2753 
Q 2328 2753 2575 2939 
Q 2822 3125 2822 3475 
Q 2822 3834 2567 4026 
Q 2313 4219 1838 4219 
Q 1578 4219 1281 4162 
Q 984 4106 628 3988 
L 628 4550 
Q 988 4650 1302 4700 
Q 1616 4750 1894 4750 
Q 2613 4750 3031 4423 
Q 3450 4097 3450 3541 
Q 3450 3153 3228 2886 
Q 3006 2619 2597 2516 
z
" transform="scale(0.015625)"/>
      <path id="DejaVuSans-77" d="M 269 3500 
L 844 3500 
L 1563 769 
L 2278 3500 
L 2956 3500 
L 3675 769 
L 4391 3500 
L 4966 3500 
L 4050 0 
L 3372 0 
L 2619 2869 
L 1863 0 
L 1184 0 
L 269 3500 
z
" transform="scale(0.015625)"/>
      <path id="DejaVuSans-119" d="M 3597 1894 
L 3597 1613 
L 953 1613 
Q 991 1019 1311 708 
Q 1631 397 2203 397 
Q 2534 397 2845 478 
Q 3156 559 3463 722 
L 3463 178 
Q 3153 47 2828 -22 
Q 2503 -91 2169 -91 
Q 1331 -91 842 396 
Q 353 884 353 1716 
Q 353 2575 817 3079 
Q 1281 3584 2069 3584 
Q 2775 3584 3186 3129 
Q 3597 2675 3597 1894 
z
M 3022 2063 
Q 3016 2534 2758 2815 
Q 2500 3097 2075 3097 
Q 1594 3097 1305 2825 
Q 1016 2553 972 2059 
L 3022 2063 
z
M 2551 0 
L 2923 0 
Q 2782 -191 2715 -328 
Q 2648 -466 2648 -563 
Q 2648 -706 2734 -778 
Q 2820 -850 2989 -850 
Q 3089 -850 3185 -826 
Q 3282 -803 3379 -756 
L 3379 -1172 
Q 3260 -1203 3154 -1218 
Q 3048 -1234 2954 -1234 
Q 2573 -1234 2393 -1098 
Q 2214 -963 2214 -672 
Q 2214 -522 2296 -358 
Q 2379 -194 2551 0 
z
" transform="scale(0.015625)"/>
      <path id="DejaVuSans-7a" d="M 353 3500 
L 3084 3500 
L 3084 2975 
L 922 459 
L 3084 459 
L 3084 0 
L 275 0 
L 275 525 
L 2438 3041 
L 353 3041 
L 353 3500 
z
" transform="scale(0.015625)"/>
      <path id="DejaVuSans-142" d="M 622 4863 
L 1197 4863 
L 1197 2981 
L 1588 3263 
L 1825 2931 
L 1197 2491 
L 1197 0 
L 622 0 
L 622 2081 
L 238 1806 
L 6 2138 
L 622 2578 
L 622 4863 
z
" transform="scale(0.015625)"/>
      <path id="DejaVuSans-f3" d="M 1959 3097 
Q 1497 3097 1228 2736 
Q 959 2375 959 1747 
Q 959 1119 1226 758 
Q 1494 397 1959 397 
Q 2419 397 2687 759 
Q 2956 1122 2956 1747 
Q 2956 2369 2687 2733 
Q 2419 3097 1959 3097 
z
M 1959 3584 
Q 2709 3584 3137 3096 
Q 3566 2609 3566 1747 
Q 3566 888 3137 398 
Q 2709 -91 1959 -91 
Q 1206 -91 779 398 
Q 353 888 353 1747 
Q 353 2609 779 3096 
Q 1206 3584 1959 3584 
z
M 2394 5119 
L 3016 5119 
L 1998 3944 
L 1519 3944 
L 2394 5119 
z
" transform="scale(0.015625)"/>
      <path id="DejaVuSans-53" d="M 3425 4513 
L 3425 3897 
Q 3066 4069 2747 4153 
Q 2428 4238 2131 4238 
Q 1616 4238 1336 4038 
Q 1056 3838 1056 3469 
Q 1056 3159 1242 3001 
Q 1428 2844 1947 2747 
L 2328 2669 
Q 3034 2534 3370 2195 
Q 3706 1856 3706 1288 
Q 3706 609 3251 259 
Q 2797 -91 1919 -91 
Q 1588 -91 1214 -16 
Q 841 59 441 206 
L 441 856 
Q 825 641 1194 531 
Q 1563 422 1919 422 
Q 2459 422 2753 634 
Q 3047 847 3047 1241 
Q 3047 1584 2836 1778 
Q 2625 1972 2144 2069 
L 1759 2144 
Q 1053 2284 737 2584 
Q 422 2884 422 3419 
Q 422 4038 858 4394 
Q 1294 4750 2059 4750 
Q 2388 4750 2728 4690 
Q 3069 4631 3425 4513 
z
" transform="scale(0.015625)"/>
      <path id="DejaVuSans-69" d="M 603 3500 
L 1178 3500 
L 1178 0 
L 603 0 
L 603 3500 
z
M 603 4863 
L 1178 4863 
L 1178 4134 
L 603 4134 
L 603 4863 
z
" transform="scale(0.015625)"/>
      <path id="DejaVuSans-6b" d="M 581 4863 
L 1159 4863 
L 1159 1991 
L 2875 3500 
L 3609 3500 
L 1753 1863 
L 3688 0 
L 2938 0 
L 1159 1709 
L 1159 0 
L 581 0 
L 581 4863 
z
" transform="scale(0.015625)"/>
      <path id="DejaVuSans-43" d="M 4122 4306 
L 4122 3641 
Q 3803 3938 3442 4084 
Q 3081 4231 2675 4231 
Q 1875 4231 1450 3742 
Q 1025 3253 1025 2328 
Q 1025 1406 1450 917 
Q 1875 428 2675 428 
Q 3081 428 3442 575 
Q 3803 722 4122 1019 
L 4122 359 
Q 3791 134 3420 21 
Q 3050 -91 2638 -91 
Q 1578 -91 968 557 
Q 359 1206 359 2328 
Q 359 3453 968 4101 
Q 1578 4750 2638 4750 
Q 3056 4750 3426 4639 
Q 3797 4528 4122 4306 
z
" transform="scale(0.015625)"/>
      <path id="DejaVuSans-62" d="M 3116 1747 
Q 3116 2381 2855 2742 
Q 2594 3103 2138 3103 
Q 1681 3103 1420 2742 
Q 1159 2381 1159 1747 
Q 1159 1113 1420 752 
Q 1681 391 2138 391 
Q 2594 391 2855 752 
Q 3116 1113 3116 1747 
z
M 1159 2969 
Q 1341 3281 1617 3432 
Q 1894 3584 2278 3584 
Q 2916 3584 3314 3078 
Q 3713 2572 3713 1747 
Q 3713 922 3314 415 
Q 2916 -91 2278 -91 
Q 1894 -91 1617 61 
Q 1341 213 1159 525 
L 1159 0 
L 581 0 
L 581 4863 
L 1159 4863 
L 1159 2969 
z
" transform="scale(0.015625)"/>
      <path id="DejaVuSans-79" d="M 2059 -325 
Q 1816 -950 1584 -1140 
Q 1353 -1331 966 -1331 
L 506 -1331 
L 506 -850 
L 844 -850 
Q 1081 -850 1212 -737 
Q 1344 -625 1503 -206 
L 1606 56 
L 191 3500 
L 800 3500 
L 1894 763 
L 2988 3500 
L 3597 3500 
L 2059 -325 
z
" transform="scale(0.015625)"/>
      <path id="DejaVuSans-73" d="M 2834 3397 
L 2834 2853 
Q 2591 2978 2328 3040 
Q 2066 3103 1784 3103 
Q 1356 3103 1142 2972 
Q 928 2841 928 2578 
Q 928 2378 1081 2264 
Q 1234 2150 1697 2047 
L 1894 2003 
Q 2506 1872 2764 1633 
Q 3022 1394 3022 966 
Q 3022 478 2636 193 
Q 2250 -91 1575 -91 
Q 1294 -91 989 -36 
Q 684 19 347 128 
L 347 722 
Q 666 556 975 473 
Q 1284 391 1588 391 
Q 1994 391 2212 530 
Q 2431 669 2431 922 
Q 2431 1156 2273 1281 
Q 2116 1406 1581 1522 
L 1381 1569 
Q 847 1681 609 1914 
Q 372 2147 372 2553 
Q 372 3047 722 3315 
Q 1072 3584 1716 3584 
Q 2034 3584 2315 3537 
Q 2597 3491 2834 3397 
z
" transform="scale(0.015625)"/>
     </defs>
     <use xlink:href="#DejaVuSans-49"/>
     <use xlink:href="#DejaVuSans-6e" x="29.492188"/>
     <use xlink:href="#DejaVuSans-74" x="92.871094"/>
     <use xlink:href="#DejaVuSans-65" x="132.080078"/>
     <use xlink:href="#DejaVuSans-72" x="193.603516"/>
     <use xlink:href="#DejaVuSans-70" x="234.716797"/>
     <use xlink:href="#DejaVuSans-6f" x="298.193359"/>
     <use xlink:href="#DejaVuSans-6c" x="359.375"/>
     <use xlink:href="#DejaVuSans-61" x="387.158203"/>
     <use xlink:href="#DejaVuSans-63" x="448.4375"/>
     <use xlink:href="#DejaVuSans-6a" x="503.417969"/>
     <use xlink:href="#DejaVuSans-61" x="531.201172"/>
     <use xlink:href="#DejaVuSans-20" x="592.480469"/>
     <use xlink:href="#DejaVuSans-64" x="624.267578"/>
     <use xlink:href="#DejaVuSans-6c" x="687.744141"/>
     <use xlink:href="#DejaVuSans-61" x="715.527344"/>
     <use xlink:href="#DejaVuSans-20" x="776.806641"/>
     <use xlink:href="#DejaVuSans-33" x="808.59375"/>
     <use xlink:href="#DejaVuSans-31" x="872.216797"/>
     <use xlink:href="#DejaVuSans-20" x="935.839844"/>
     <use xlink:href="#DejaVuSans-77" x="967.626953"/>
     <use xlink:href="#DejaVuSans-119" x="1049.414062"/>
     <use xlink:href="#DejaVuSans-7a" x="1110.9375"/>
     <use xlink:href="#DejaVuSans-142" x="1163.427734"/>
     <use xlink:href="#DejaVuSans-f3" x="1191.845703"/>
     <use xlink:href="#DejaVuSans-77" x="1253.027344"/>
     <use xlink:href="#DejaVuSans-20" x="1334.814453"/>
     <use xlink:href="#DejaVuSans-53" x="1366.601562"/>
     <use xlink:href="#DejaVuSans-69" x="1430.078125"/>
     <use xlink:href="#DejaVuSans-61" x="1457.861328"/>
     <use xlink:href="#DejaVuSans-74" x="1519.140625"/>
     <use xlink:href="#DejaVuSans-6b" x="1558.349609"/>
     <use xlink:href="#DejaVuSans-61" x="1614.509766"/>
     <use xlink:href="#DejaVuSans-20" x="1675.789062"/>
     <use xlink:href="#DejaVuSans-43" x="1707.576172"/>
     <use xlink:href="#DejaVuSans-7a" x="1777.400391"/>
     <use xlink:href="#DejaVuSans-65" x="1829.890625"/>
     <use xlink:href="#DejaVuSans-62" x="1891.414062"/>
     <use xlink:href="#DejaVuSans-79" x="1954.890625"/>
     <use xlink:href="#DejaVuSans-73" x="2014.070312"/>
     <use xlink:href="#DejaVuSans-7a" x="2066.169922"/>
     <use xlink:href="#DejaVuSans-65" x="2118.660156"/>
     <use xlink:href="#DejaVuSans-77" x="2180.183594"/>
     <use xlink:href="#DejaVuSans-61" x="2261.970703"/>
    </g>
   </g>
   <g id="legend_1">
    <g id="patch_7">
     <path d="M 482.221875 103.874375 
L 641 103.874375 
Q 643 103.874375 643 101.874375 
L 643 58.84 
Q 643 56.84 641 56.84 
L 482.221875 56.84 
Q 480.221875 56.84 480.221875 58.84 
L 480.221875 101.874375 
Q 480.221875 103.874375 482.221875 103.874375 
z
" style="fill: #ffffff; opacity: 0.8; stroke: #cccccc; stroke-linejoin: miter"/>
    </g>
    <g id="line2d_33">
     <path d="M 484.221875 64.938437 
L 494.221875 64.938437 
L 504.221875 64.938437 
" style="fill: none; stroke: #ffa500; stroke-width: 1.5; stroke-linecap: square"/>
    </g>
    <g id="text_17">
     <!-- Wielomian interpolacyjny -->
     <g transform="translate(512.221875 68.438437) scale(0.1 -0.1)">
      <defs>
       <path id="DejaVuSans-57" d="M 213 4666 
L 850 4666 
L 1831 722 
L 2809 4666 
L 3519 4666 
L 4500 722 
L 5478 4666 
L 6119 4666 
L 4947 0 
L 4153 0 
L 3169 4050 
L 2175 0 
L 1381 0 
L 213 4666 
z
" transform="scale(0.015625)"/>
       <path id="DejaVuSans-6d" d="M 3328 2828 
Q 3544 3216 3844 3400 
Q 4144 3584 4550 3584 
Q 5097 3584 5394 3201 
Q 5691 2819 5691 2113 
L 5691 0 
L 5113 0 
L 5113 2094 
Q 5113 2597 4934 2840 
Q 4756 3084 4391 3084 
Q 3944 3084 3684 2787 
Q 3425 2491 3425 1978 
L 3425 0 
L 2847 0 
L 2847 2094 
Q 2847 2600 2669 2842 
Q 2491 3084 2119 3084 
Q 1678 3084 1418 2786 
Q 1159 2488 1159 1978 
L 1159 0 
L 581 0 
L 581 3500 
L 1159 3500 
L 1159 2956 
Q 1356 3278 1631 3431 
Q 1906 3584 2284 3584 
Q 2666 3584 2933 3390 
Q 3200 3197 3328 2828 
z
" transform="scale(0.015625)"/>
      </defs>
      <use xlink:href="#DejaVuSans-57"/>
      <use xlink:href="#DejaVuSans-69" x="96.626953"/>
      <use xlink:href="#DejaVuSans-65" x="124.410156"/>
      <use xlink:href="#DejaVuSans-6c" x="185.933594"/>
      <use xlink:href="#DejaVuSans-6f" x="213.716797"/>
      <use xlink:href="#DejaVuSans-6d" x="274.898438"/>
      <use xlink:href="#DejaVuSans-69" x="372.310547"/>
      <use xlink:href="#DejaVuSans-61" x="400.09375"/>
      <use xlink:href="#DejaVuSans-6e" x="461.373047"/>
      <use xlink:href="#DejaVuSans-20" x="524.751953"/>
      <use xlink:href="#DejaVuSans-69" x="556.539062"/>
      <use xlink:href="#DejaVuSans-6e" x="584.322266"/>
      <use xlink:href="#DejaVuSans-74" x="647.701172"/>
      <use xlink:href="#DejaVuSans-65" x="686.910156"/>
      <use xlink:href="#DejaVuSans-72" x="748.433594"/>
      <use xlink:href="#DejaVuSans-70" x="789.546875"/>
      <use xlink:href="#DejaVuSans-6f" x="853.023438"/>
      <use xlink:href="#DejaVuSans-6c" x="914.205078"/>
      <use xlink:href="#DejaVuSans-61" x="941.988281"/>
      <use xlink:href="#DejaVuSans-63" x="1003.267578"/>
      <use xlink:href="#DejaVuSans-79" x="1058.248047"/>
      <use xlink:href="#DejaVuSans-6a" x="1117.427734"/>
      <use xlink:href="#DejaVuSans-6e" x="1145.210938"/>
      <use xlink:href="#DejaVuSans-79" x="1208.589844"/>
     </g>
    </g>
    <g id="line2d_34">
     <path d="M 484.221875 79.616562 
L 494.221875 79.616562 
L 504.221875 79.616562 
" style="fill: none; stroke: #008000; stroke-width: 1.5; stroke-linecap: square"/>
    </g>
    <g id="text_18">
     <!-- Przebieg funkcji -->
     <g transform="translate(512.221875 83.116562) scale(0.1 -0.1)">
      <defs>
       <path id="DejaVuSans-50" d="M 1259 4147 
L 1259 2394 
L 2053 2394 
Q 2494 2394 2734 2622 
Q 2975 2850 2975 3272 
Q 2975 3691 2734 3919 
Q 2494 4147 2053 4147 
L 1259 4147 
z
M 628 4666 
L 2053 4666 
Q 2838 4666 3239 4311 
Q 3641 3956 3641 3272 
Q 3641 2581 3239 2228 
Q 2838 1875 2053 1875 
L 1259 1875 
L 1259 0 
L 628 0 
L 628 4666 
z
" transform="scale(0.015625)"/>
       <path id="DejaVuSans-67" d="M 2906 1791 
Q 2906 2416 2648 2759 
Q 2391 3103 1925 3103 
Q 1463 3103 1205 2759 
Q 947 2416 947 1791 
Q 947 1169 1205 825 
Q 1463 481 1925 481 
Q 2391 481 2648 825 
Q 2906 1169 2906 1791 
z
M 3481 434 
Q 3481 -459 3084 -895 
Q 2688 -1331 1869 -1331 
Q 1566 -1331 1297 -1286 
Q 1028 -1241 775 -1147 
L 775 -588 
Q 1028 -725 1275 -790 
Q 1522 -856 1778 -856 
Q 2344 -856 2625 -561 
Q 2906 -266 2906 331 
L 2906 616 
Q 2728 306 2450 153 
Q 2172 0 1784 0 
Q 1141 0 747 490 
Q 353 981 353 1791 
Q 353 2603 747 3093 
Q 1141 3584 1784 3584 
Q 2172 3584 2450 3431 
Q 2728 3278 2906 2969 
L 2906 3500 
L 3481 3500 
L 3481 434 
z
" transform="scale(0.015625)"/>
       <path id="DejaVuSans-66" d="M 2375 4863 
L 2375 4384 
L 1825 4384 
Q 1516 4384 1395 4259 
Q 1275 4134 1275 3809 
L 1275 3500 
L 2222 3500 
L 2222 3053 
L 1275 3053 
L 1275 0 
L 697 0 
L 697 3053 
L 147 3053 
L 147 3500 
L 697 3500 
L 697 3744 
Q 697 4328 969 4595 
Q 1241 4863 1831 4863 
L 2375 4863 
z
" transform="scale(0.015625)"/>
       <path id="DejaVuSans-75" d="M 544 1381 
L 544 3500 
L 1119 3500 
L 1119 1403 
Q 1119 906 1312 657 
Q 1506 409 1894 409 
Q 2359 409 2629 706 
Q 2900 1003 2900 1516 
L 2900 3500 
L 3475 3500 
L 3475 0 
L 2900 0 
L 2900 538 
Q 2691 219 2414 64 
Q 2138 -91 1772 -91 
Q 1169 -91 856 284 
Q 544 659 544 1381 
z
M 1991 3584 
L 1991 3584 
z
" transform="scale(0.015625)"/>
      </defs>
      <use xlink:href="#DejaVuSans-50"/>
      <use xlink:href="#DejaVuSans-72" x="58.552734"/>
      <use xlink:href="#DejaVuSans-7a" x="99.666016"/>
      <use xlink:href="#DejaVuSans-65" x="152.15625"/>
      <use xlink:href="#DejaVuSans-62" x="213.679688"/>
      <use xlink:href="#DejaVuSans-69" x="277.15625"/>
      <use xlink:href="#DejaVuSans-65" x="304.939453"/>
      <use xlink:href="#DejaVuSans-67" x="366.462891"/>
      <use xlink:href="#DejaVuSans-20" x="429.939453"/>
      <use xlink:href="#DejaVuSans-66" x="461.726562"/>
      <use xlink:href="#DejaVuSans-75" x="496.931641"/>
      <use xlink:href="#DejaVuSans-6e" x="560.310547"/>
      <use xlink:href="#DejaVuSans-6b" x="623.689453"/>
      <use xlink:href="#DejaVuSans-63" x="681.599609"/>
      <use xlink:href="#DejaVuSans-6a" x="736.580078"/>
      <use xlink:href="#DejaVuSans-69" x="764.363281"/>
     </g>
    </g>
    <g id="PathCollection_2">
     <g>
      <use xlink:href="#mfe43674291" x="494.221875" y="95.169687" style="fill: #1f77b4; stroke: #1f77b4"/>
     </g>
    </g>
    <g id="text_19">
     <!-- węzły -->
     <g transform="translate(512.221875 97.794687) scale(0.1 -0.1)">
      <use xlink:href="#DejaVuSans-77"/>
      <use xlink:href="#DejaVuSans-119" x="81.787109"/>
      <use xlink:href="#DejaVuSans-7a" x="143.310547"/>
      <use xlink:href="#DejaVuSans-142" x="195.800781"/>
      <use xlink:href="#DejaVuSans-79" x="224.21875"/>
     </g>
    </g>
   </g>
  </g>
 </g>
 <defs>
  <clipPath id="p75906c1be1">
   <rect x="90" y="51.84" width="558" height="332.64"/>
  </clipPath>
 </defs>
</svg>
